<?xml version="1.0" encoding="UTF-8" standalone="no"?>
<!-- Created with Inkscape (http://www.inkscape.org/) -->

<svg
   width="31.270086mm"
   height="27.236162mm"
   viewBox="0 0 31.270086 27.236162"
   version="1.1"
   id="svg5"
   inkscape:version="1.2 (dc2aedaf03, 2022-05-15)"
   sodipodi:docname="logo_favicon.svg"
   xmlns:inkscape="http://www.inkscape.org/namespaces/inkscape"
   xmlns:sodipodi="http://sodipodi.sourceforge.net/DTD/sodipodi-0.dtd"
   xmlns="http://www.w3.org/2000/svg"
   xmlns:svg="http://www.w3.org/2000/svg">
  <sodipodi:namedview
     id="namedview7"
     pagecolor="#ffffff"
     bordercolor="#000000"
     borderopacity="0.25"
     inkscape:showpageshadow="2"
     inkscape:pageopacity="0.0"
     inkscape:pagecheckerboard="0"
     inkscape:deskcolor="#d1d1d1"
     inkscape:document-units="mm"
     showgrid="false"
     showguides="false"
     inkscape:zoom="0.36257716"
     inkscape:cx="264.77123"
     inkscape:cy="372.33454"
     inkscape:window-width="1920"
     inkscape:window-height="1001"
     inkscape:window-x="-9"
     inkscape:window-y="-9"
     inkscape:window-maximized="1"
     inkscape:current-layer="layer1"
     inkscape:lockguides="false" />
  <defs
     id="defs2" />
  <g
     inkscape:label="Layer 1"
     inkscape:groupmode="layer"
     id="layer1"
     transform="translate(-81.206081,-240.42739)">
    <path
       id="rect9667"
       style="opacity:1;fill:#a8df00;fill-opacity:1;stroke-width:0.228975"
       d="m 81.211388,241.34694 c -0.177868,-1.83989 4.165222,-0.44391 5.544187,0.1163 1.394932,0.5667 13.734415,0.41026 19.281925,0.1417 2.22028,-0.10748 6.4378,-0.258 6.4378,-0.258 0,0 0.0304,6.57096 -0.26855,9.96724 -0.12666,1.4389 -1.02144,2.68499 -1.02144,2.68499 0,0 1.00858,1.81791 0.96908,5.28306 -0.0276,2.41677 0.0629,8.05105 0.0629,8.05105 0,0 -8.32181,-1.00863 -12.469968,-0.048 -1.930366,0.44702 -3.848816,-1.00231 -4.148733,-1.48949 -1.712847,-2.78229 -5.717989,0.51837 -5.814998,1.15051 -0.278742,1.81638 -3.165348,-0.19763 -3.798095,-1.83282 -0.408473,-1.0556 0.936064,4.04085 -4.774118,0.67183 0,0 0.887696,-15.25592 0,-24.43835 z"
       sodipodi:nodetypes="ssscscscsssssss" />
    <path
       d="m 99.334263,248.27022 c 0.27284,-0.58705 0.62011,-1.02113 1.041787,-1.30225 0.42168,-0.28112 0.93844,-0.42168 1.55029,-0.42168 1.19889,0 5.20072,0.41341 5.65547,1.24024 0.34744,1.42508 1.36095,1.96588 0.94422,2.59474 -0.59213,0.89358 -0.24969,1.14034 -0.24969,2.56463 v 7.82588 h -3.50573 c 0.61553,-2.35689 2.9e-4,-5.94456 0,-8.91728 -8e-5,-0.8511 -0.56288,-1.17133 -0.23564,-2.07119 0.8023,-2.20626 -2.76893,-1.47867 -3.63842,-0.97698 -0.35808,0.20661 -0.56598,0.63385 -0.73134,0.98938 -0.165367,0.35553 -0.248047,1.0418 -0.248047,2.05879 0,0 -0.49534,7.34059 0.228037,8.96289 0,0 -3.379387,0.48641 -3.997677,-0.27365 -0.59676,-0.73358 -0.22804,-8.68924 -0.22804,-8.68924 0,-1.01699 -0.0827,-1.70326 -0.24805,-2.05879 -0.16537,-0.35553 -0.45475,-0.5333 -0.86817,-0.5333 -0.41341,0 -2.01719,-0.50582 -2.97242,1.05007 -0.19942,0.32481 -0.23565,0.50849 -0.23565,1.54202 0,0 0.28007,1.029 -0.22804,1.55178 -0.43765,0.45028 0.47473,0.51557 0.22804,1.86993 -0.44441,2.43988 0,5.49557 0,5.49557 h -6.24278 c 0,0 0.19433,-1.92857 -0.22804,-3.71685 0.20058,-0.86086 0.31926,-8.84797 0.31926,-8.84797 l 0.0456,-1.64506 c 0,0 2.81047,0.22997 3.55621,0.31926 0.74573,0.0893 2.27938,-0.35475 2.27938,-0.35475 l -0.258,2.72866 c 0.20671,-0.54571 0.98893,-1.7819 1.44369,-2.09609 2.00543,-0.64172 2.82191,-0.61269 3.38415,-0.61269 0.56224,0 2.13321,0.1695 2.59623,0.5085 0.46302,0.33073 0.74414,0.73587 0.84336,1.21543 z"
       style="font-weight:bold;font-size:25.4px;font-family:monospace;-inkscape-font-specification:'monospace Bold';fill:#ffffff;stroke-width:0.264583"
       id="path1377-6"
       sodipodi:nodetypes="csscssccssssssssssssssccccczcccsccc" />
  </g>
</svg>
