<?xml version="1.0" encoding="UTF-8" standalone="no"?>
<!-- Created with Inkscape (http://www.inkscape.org/) -->

<svg
   width="241.55751mm"
   height="241.61011mm"
   viewBox="0 0 241.55752 241.61012"
   version="1.1"
   id="svg11161"
   inkscape:version="1.2 (dc2aedaf03, 2022-05-15)"
   sodipodi:docname="chaos.svg"
   xmlns:inkscape="http://www.inkscape.org/namespaces/inkscape"
   xmlns:sodipodi="http://sodipodi.sourceforge.net/DTD/sodipodi-0.dtd"
   xmlns="http://www.w3.org/2000/svg"
   xmlns:svg="http://www.w3.org/2000/svg">
  <sodipodi:namedview
     id="namedview11163"
     pagecolor="#ffffff"
     bordercolor="#000000"
     borderopacity="0.25"
     inkscape:showpageshadow="2"
     inkscape:pageopacity="0.0"
     inkscape:pagecheckerboard="0"
     inkscape:deskcolor="#d1d1d1"
     inkscape:document-units="mm"
     showgrid="false"
     inkscape:zoom="1.0255231"
     inkscape:cx="662.10114"
     inkscape:cy="361.27905"
     inkscape:window-width="1920"
     inkscape:window-height="1001"
     inkscape:window-x="-9"
     inkscape:window-y="-9"
     inkscape:window-maximized="1"
     inkscape:current-layer="layer1" />
  <defs
     id="defs11158" />
  <g
     inkscape:label="Layer 1"
     inkscape:groupmode="layer"
     id="layer1"
     transform="translate(67.62687,-134.45146)">
    <path
       style="fill:#999999;fill-opacity:0.04830918;stroke-width:0.193055"
       id="path11750"
       d="m 57.221641,222.86027 c -2.213182,0.58544 -4.417278,1.19803 -6.661213,1.57054 -0.924488,0.15354 -1.852697,0.26729 -2.779044,0.40092 -6.731821,0.76537 -13.456712,0.0495 -19.676644,-3.62177 -1.311396,-0.77404 -2.523153,-1.80118 -3.784728,-2.70177 -1.29478,-1.65906 -3.198644,-4.03047 -4.185022,-5.74232 -0.759663,-1.31839 -1.374596,-2.77057 -1.957892,-4.22991 -1.022148,-2.5573 -1.770236,-4.95993 -1.84923,-7.8694 -0.03349,-1.23333 0.215476,-2.45256 0.323214,-3.67885 0.58892,-2.09924 0.942309,-4.26206 2.359139,-5.79989 0.834455,-0.90571 1.849934,-1.51778 2.856215,-2.06319 5.538929,-3.00213 11.297026,-2.43671 17.157677,-2.4267 8.535954,0.61255 17.005569,2.18559 25.338036,4.63025 3.7223,1.09208 8.73806,2.7364 12.325677,4.75451 1.473383,0.82882 2.820557,1.9877 4.230832,2.98153 0.4774,0.89552 3.35961,6.29612 3.418529,6.44097 0.572722,1.40782 1.003924,2.9174 1.32404,4.45191 0.664079,3.18344 0.729491,6.18496 0.58581,9.44718 -0.06319,1.43557 -0.253906,2.85712 -0.380856,4.2857 -0.263281,1.29892 -0.430359,2.63651 -0.789844,3.89672 -1.051331,3.68557 -3.105595,7.06843 -5.770909,9.05458 -2.914919,2.17214 -5.081396,2.45813 -8.403446,3.48298 -7.117567,1.50312 -14.332626,1.97058 -21.533613,2.15641 -4.34198,0.11195 -9.332285,0.0873 -13.700294,-0.1697 -1.772398,-0.10427 -3.540126,-0.31336 -5.310189,-0.47005 -1.328743,-0.34654 -5.92559,-1.122 -7.186955,-2.85089 -0.292963,-0.40155 0.553533,-0.86729 0.700859,-1.38425 0.324248,-1.13773 0.179871,-2.51024 0.697589,-3.52275 2.09967,-4.10636 5.303573,-5.32187 8.566149,-7.4575 2.472391,-0.97909 4.90756,-2.12975 7.417169,-2.93728 4.387913,-1.4119 11.035974,-2.7666 15.594748,-3.25428 3.474103,-0.37163 8.39453,-0.474 11.954468,0.12693 1.386969,0.23412 2.730841,0.78197 4.096258,1.17297 0.949935,0.67738 2.044515,1.09481 2.849798,2.03211 0.209201,0.2435 -0.260148,0.7071 -0.193507,1.05964 0.476215,2.51942 1.584013,2.49831 0.767019,5.29026 -0.798376,2.72833 -2.456116,3.5809 -4.214963,5.13199 -1.216492,0.60923 -2.364778,1.52909 -3.649475,1.82768 -1.675159,0.38933 -3.404128,0.31405 -5.104398,0.20687 -3.656604,-0.23053 -7.122971,-1.02765 -10.468108,-3.02375 -1.786825,-1.06622 -3.816115,-4.41852 -4.965702,-6.0491 -0.32557,-1.37667 -0.987988,-2.6912 -0.976707,-4.13002 0.01104,-1.40352 0.509684,-2.76607 1.0404,-3.99261 1.260121,-2.9123 3.097192,-4.65808 5.369806,-6.13397 1.095933,-0.71173 2.256529,-1.29199 3.451878,-1.65256 1.043825,-0.31484 2.136403,-0.23685 3.204603,-0.35527 0.89691,0.20713 1.81438,0.30018 2.690725,0.62139 0.08758,0.0321 -0.112445,0.21999 -0.08775,0.33269 0.211815,0.96634 0.747169,1.83584 0.782901,2.83877 0.09172,2.57395 -1.041452,5.25156 -2.152841,7.22184 -0.648139,1.14903 -1.479123,2.10765 -2.218681,3.16148 -1.992251,1.77054 -3.448062,3.36408 -5.801441,4.30198 -2.105751,0.83918 -3.962356,0.79953 -6.092648,0.25132 -0.234152,-0.0603 -0.429356,-0.29362 -0.592376,-0.51798 -0.655493,-0.90208 -1.232129,-1.8938 -1.848191,-2.84072 -0.557902,-3.51087 -1.143108,-5.21115 -0.388423,-8.87388 0.803743,-3.90082 2.530323,-6.962 5.025093,-9.41809 3.414448,-3.36152 5.702338,-3.76185 9.692607,-5.32438 1.481821,0.0692 3.00541,-0.24683 4.445454,0.20766 1.148262,0.3624 2.303266,1.0748 3.116046,2.17883 0.318461,0.43259 -0.07798,1.19579 -0.211853,1.76602 -0.328159,1.39785 -0.380258,3.0637 -1.168706,4.11459 -1.463145,1.95014 -3.36842,3.32822 -5.277195,4.47675 -2.890242,1.73906 -6.012986,2.7504 -9.019479,4.12559 -15.039604,3.49501 -12.805561,3.50189 -28.766311,4.91074 -4.822104,0.42565 -9.653886,0.671 -14.4854171,0.84634 -8.4954387,0.30832 -13.3074973,0.49978 -21.3970679,-0.95165 -2.102605,-0.37727 -4.156696,-1.11351 -6.235045,-1.67026 -0.311901,-0.47897 -0.990191,-0.81614 -0.935704,-1.43687 0.300392,-3.42214 3.483678,-6.75445 5.316384,-8.25688 4.783474,-3.9214 10.9478912,-6.58401 16.30715521,-8.48325 3.28096979,-1.16272 6.64207329,-1.91276 9.96310849,-2.86914 7.8056853,-1.53862 9.4885353,-2.33278 17.0872633,-2.19247 4.413243,0.0814 7.262502,0.21887 11.058857,3.09633 1.185603,0.89864 3.143638,5.81622 3.517597,6.64021 0.288342,1.4669 0.739014,2.89636 0.86503,4.40068 0.116615,1.39211 0.03342,2.81508 -0.144852,4.19635 -0.334056,2.58834 -1.046463,4.88031 -2.7447,6.51757 -2.091971,2.01685 -4.318542,2.243 -6.776615,2.91824 -1.391437,-0.0562 -6.119301,0.19099 -7.352797,-1.5407 -0.478248,-0.67144 0.41123,-1.74359 0.657201,-2.59735 0.588651,-2.0432 0.815259,-4.36089 1.845816,-6.09057 4.252312,-7.1371 10.228787,-10.69199 16.03707,-15.26951 12.503995,-6.92922 11.983804,-7.13208 24.963788,-12.3696 3.812731,-1.53846 7.659908,-2.94165 11.531461,-4.21431 5.144056,-1.69095 11.158992,-3.93118 16.648323,-2.79666 1.532792,0.31678 2.848738,1.58789 4.273108,2.38185 -0.37135,3.61342 -0.83613,8.20034 -1.783039,11.68959 -0.73449,2.7065 -1.550456,4.31861 -2.643402,6.81707 -2.505725,5.72807 -5.504421,10.57679 -8.913395,15.44546 -1.52113,2.17247 -3.183678,4.17411 -4.77551,6.26115 -3.065357,3.42539 -4.855111,5.71897 -8.20613,8.46036 -0.980547,0.80215 -1.980609,1.62082 -3.083312,2.09281 -0.732843,0.31368 -1.541439,0.13226 -2.311079,0.21616 -0.180295,0.0197 0.533166,0.20889 0.542536,-0.0235 0.05393,-1.33724 -0.253867,-2.65812 -0.380805,-3.98717 0.183779,-1.83613 0.20959,-3.71001 0.551326,-5.5084 1.003037,-5.2785 2.867519,-10.48204 4.911577,-15.19156 2.252939,-5.19075 5.213072,-10.66874 8.140675,-15.27756 1.221511,-1.92298 2.589141,-3.68454 3.883709,-5.52683 -3.120209,0.72911 4.792678,-4.86632 4.684314,-2.67419 -0.04884,0.98782 -1.484131,0.93213 -1.825186,1.8195 -0.816132,2.12344 -0.873371,4.61185 -1.502327,6.8381 -2.079689,7.36115 -3.748998,10.68198 -6.689724,17.69375 -4.263252,8.98788 -9.256644,17.38914 -14.842713,25.08446 -0.868454,1.1964 -5.507061,7.59812 -7.539265,8.25958 -0.841608,0.27394 -1.651465,-0.68935 -2.477196,-1.03401 0.0871,-1.10492 0.329572,-2.20763 0.261325,-3.31473 -0.136896,-2.22091 -0.789168,-4.36363 -0.871829,-6.58897 -0.203968,-5.491 0.585674,-11.47085 1.742097,-16.71589 0.598319,-2.71371 1.401491,-5.34979 2.23257,-7.96023 0.728546,-2.28837 1.627662,-4.48072 2.441504,-6.72108 -1.032483,-4.1676 3.726534,-4.57614 4.127402,-7.63132 0.08212,-0.62586 -1.229618,-0.72005 -1.475114,-0.1695 -0.703127,1.57716 -0.428313,3.60567 -0.8333,5.34739 -1.580906,6.79884 -3.081303,10.13421 -5.502549,16.6617 -1.813421,4.24415 -4.469835,10.90936 -6.846528,14.90014 -0.816278,1.37062 -1.640368,2.88552 -2.830503,3.6847 -0.649025,0.43581 -1.688331,0.37612 -2.182634,-0.31842 -0.377219,-0.52999 0.453481,-1.34463 0.48872,-2.06161 0.125047,-2.54428 -0.0077,-5.09871 -0.0115,-7.64804 0.684191,-3.44207 1.154053,-6.96659 2.052572,-10.32622 2.172827,-8.12437 4.881398,-14.40076 8.478721,-21.61326 1.46335,-2.93399 3.036907,-5.78161 4.708617,-8.52543 3.417056,-5.60846 1.984085,-5.0648 5.100067,-5.29046 -0.841603,0.58221 -1.956008,0.75922 -2.524812,1.74665 -1.376491,2.38952 -1.957385,5.39408 -3.084385,7.99068 -1.482683,3.41609 -3.076972,6.75353 -4.73773,10.0314 -4.512613,8.90667 -8.361384,15.49552 -13.525178,23.86501 -2.289094,3.71018 -4.680054,7.31455 -7.020079,10.97181 -4.608405,6.7272 -6.946271,10.35001 -11.681855,16.54142 -1.364069,1.78341 -2.719366,3.58933 -4.20806,5.19956 -0.900626,0.97417 -2.152856,1.39367 -2.933972,2.52557 -0.231522,0.3355 0.873428,0.63251 1.03083,0.23226 0.637608,-1.62141 0.643324,-3.53834 0.964984,-5.30751 3.270427,-10.03316 2.774644,-9.24764 7.286651,-19.57345 1.562235,-3.57521 3.202589,-7.09502 4.899849,-10.56698 1.566971,-3.2054 6.975545,-13.62548 9.128928,-16.93944 0.992794,-1.52787 2.224245,-2.77068 3.336369,-4.15602 0.7493,-0.47456 1.63104,-0.69959 2.247904,-1.42367 0.294133,-0.34526 -1.034367,-0.29502 -1.186765,0.17817 -0.496986,1.54283 -0.192692,3.34208 -0.472471,4.97281 -1.337725,7.79699 -4.161523,14.93835 -6.828758,22.07567 -3.878341,9.53833 -1.30346,3.32244 -4.864461,11.68139 -0.489111,1.14813 -0.949708,2.31659 -1.456352,3.45205 -0.09098,0.20392 -0.508837,0.62727 -0.333691,0.55976 1.206064,-0.46486 2.664458,-0.58892 3.512854,-1.78506 1.580914,-2.22894 2.254842,-5.29091 3.382264,-7.93634 7.755019,-17.74524 16.802049,-34.48614 26.209314,-50.83342 1.992733,-3.46284 3.97351,-6.93962 6.061191,-10.30871 1.487559,-2.40062 3.106445,-4.66173 4.659667,-6.99259 1.046557,-1.25835 2.345654,-2.2415 3.139669,-3.77507 0.213565,-0.41249 -0.978287,-0.4976 -1.155352,-0.0574 -0.652343,1.62156 -0.498442,3.61059 -0.967302,5.33382 -1.337253,4.9149 -4.117894,11.93031 -6.121991,16.31907 -1.225827,2.68444 -2.629424,5.22796 -3.94414,7.84197 -1.344998,2.19666 -2.528593,4.57391 -4.034995,6.59 -2.622379,3.50965 -5.465364,6.04775 -9.115649,7.42117 -2.941982,1.10693 -6.733736,1.13118 -9.741636,0.55234 -1.574215,-0.30295 -3.092768,-0.97024 -4.639153,-1.45536 -3.789042,-1.754 -4.280688,-1.78583 -7.759301,-4.12569 -0.786063,-0.52874 -3.46611,-3.21971 -3.632155,-3.40538 -1.793577,-2.00547 -2.022732,-2.66956 -3.393939,-5.0611 -1.195019,-2.56565 -2.008807,-5.36459 -2.298637,-8.34066 -0.127916,-1.31349 -0.189487,-3.41046 0.191165,-4.72111 0.181158,-0.62376 0.559597,-1.12055 0.839394,-1.68082 0.475703,-0.33887 0.891749,-0.89362 1.42711,-1.0166 1.819472,-0.4179 4.178342,0.69253 5.652414,1.75064 0.893315,0.64122 1.633517,1.58843 2.40122,2.45797 4.753762,5.38423 4.610332,5.47955 8.92598,11.43152 1.213582,1.82105 2.427165,3.6421 3.640749,5.46318 l 1.759128,0.95659 v 0 L 43.5802,195.87058 c -2.327601,-3.22502 -6.061875,-8.65553 -8.77932,-11.40965 -1.867501,-1.89272 -3.8572,-3.60105 -5.931739,-5.09545 -1.57712,-1.13609 -4.029289,-2.21539 -5.949163,-1.70787 -0.567467,0.14999 -0.997528,0.75788 -1.496292,1.13685 -0.290284,0.59969 -0.682732,1.13542 -0.870851,1.79908 -0.380626,1.34275 -0.310143,3.50526 -0.179035,4.84884 0.294084,3.01376 1.0898,5.86714 2.289153,8.47714 1.375664,2.43145 1.616681,3.13088 3.427934,5.16905 2.132823,2.40002 4.925144,4.4713 7.334558,6.14406 1.161786,0.80659 2.366966,1.51283 3.591025,2.14921 1.349278,0.70145 2.74649,1.23965 4.119734,1.85949 1.553009,0.47189 3.078884,1.12904 4.659023,1.41568 3.003204,0.54476 6.839422,0.46744 9.760669,-0.68581 3.650892,-1.4413 6.442062,-4.05649 9.029163,-7.62863 1.482752,-2.0473 2.644837,-4.44294 3.967255,-6.66439 1.310559,-2.62361 2.693556,-5.18968 3.931669,-7.87083 1.83884,-3.98202 5.026578,-11.7149 6.463449,-16.13455 0.137525,-0.42303 3.860595,-9.31175 -1.455739,-7.93538 -1.384638,0.35848 -1.906187,2.68042 -2.859288,4.02061 -1.456608,2.40869 -2.95416,4.77736 -4.369828,7.22608 -2.112535,3.65409 -11.236438,20.17291 -12.833643,23.08866 -5.202932,9.49804 -9.508085,17.39242 -14.443613,27.07941 -1.810202,3.55288 -3.537552,7.17444 -5.306326,10.76167 -4.060377,8.14706 -4.407064,5.10102 -3.193588,12.4186 0.03941,0.23765 -0.0064,-0.49919 0.06506,-0.72415 0.385283,-1.2139 0.842753,-2.38837 1.295671,-3.56302 1.528237,-3.96351 3.221204,-7.82015 4.674986,-11.83229 2.668289,-7.16168 5.463972,-14.26218 7.119595,-21.95223 0.354206,-1.6452 1.231914,-3.39891 0.805311,-5.01547 -0.401001,-1.51953 -1.701208,-2.68009 -2.92282,-3.00858 -0.796164,-0.21409 -1.378216,1.11117 -2.067324,1.66677 -1.027579,1.46468 -2.148258,2.82968 -3.082739,4.39404 -1.953137,3.26965 -7.440441,14.1114 -8.901412,17.12895 -2.609187,5.38909 -7.22213,15.48881 -9.52182,21.14018 -1.154328,2.83668 -2.150461,5.77524 -3.225691,8.66286 -0.580382,2.25048 -3.609969,8.12808 1.641779,7.83428 1.151431,-0.0645 1.877565,-1.73352 2.718786,-2.74643 1.408571,-1.69605 2.707307,-3.53808 4.015464,-5.36223 4.464757,-6.22585 6.968278,-10.16888 11.355301,-16.80742 7.132652,-11.35908 14.317946,-22.65944 20.747595,-34.70884 1.724946,-3.23261 3.35434,-6.54888 4.964872,-9.87764 1.231171,-2.54468 3.070872,-4.80874 3.558588,-7.73922 0.284297,-1.70823 -0.970586,-3.26334 -1.455881,-4.895 -2.682526,1.41924 -1.360063,0.44639 -4.506597,6.01175 -1.593653,2.81874 -3.126676,5.69725 -4.571158,8.64591 -1.69624,3.46257 -3.390198,6.93884 -4.846107,10.57776 -3.854504,9.63401 -3.832116,11.20839 -6.099134,21.19421 -0.111219,2.52816 -0.92211,5.16794 -0.333673,7.58448 0.263693,1.08291 3.145294,6.90269 5.502712,4.94644 1.12366,-0.93245 1.864127,-2.48486 2.63516,-3.88982 2.110393,-3.84552 5.044017,-11.10119 6.707362,-15.03075 2.654824,-6.85624 3.868844,-9.47559 5.861557,-16.46315 0.498533,-1.74815 1.578461,-3.53593 1.25045,-5.3495 -0.252722,-1.39729 -1.569535,-2.65823 -2.683324,-2.57281 -2.416362,0.18528 -1.555006,8.48227 -3.853395,7.91391 -0.788447,2.26628 -1.651047,4.49228 -2.365345,6.79883 -1.786731,5.76957 -2.980787,10.41036 -3.702141,16.59011 -0.398838,3.41681 -0.916862,11.04824 0.264408,14.66762 0.766331,2.34804 2.298571,4.14757 3.447861,6.22136 0.815392,0.23356 1.653713,1.04053 2.446169,0.70067 1.870649,-0.80227 6.471197,-7.48226 7.228777,-8.57466 5.448933,-7.85711 10.421438,-16.27066 14.780706,-25.18321 3.23739,-7.46519 4.504764,-9.83739 6.975553,-17.53812 0.704382,-2.19535 1.897713,-4.34621 1.840732,-6.71989 -0.04697,-1.95762 -1.530482,-6.3885 -3.738079,-4.7691 -1.055816,0.7745 -1.84245,2.03932 -2.763679,3.05898 -1.254451,1.88049 -2.56674,3.69967 -3.76336,5.64145 -2.900693,4.70706 -5.842292,10.09893 -8.166948,15.30385 -2.014155,4.5097 -4.109391,9.9909 -5.212223,15.06909 -0.387464,1.78416 -0.463023,3.65664 -0.694535,5.48494 0.05411,1.37701 -0.439343,2.98985 0.162464,4.13104 1.39144,2.63854 3.658446,3.51127 5.770123,2.44678 1.068623,-0.53871 2.030648,-1.38962 2.977931,-2.22302 3.255898,-2.8645 5.013928,-5.1808 8.008365,-8.66461 1.569534,-2.11086 3.431457,-3.9177 4.708611,-6.33257 5.509899,-10.41821 5.944892,-11.28666 11.898539,-22.14358 1.11142,-2.02672 1.83422,-5.8015 1.53228,-8.25075 -0.30349,-2.46162 -2.09115,-4.19745 -3.136729,-6.29618 -1.366763,-0.69558 -2.641748,-1.85186 -4.100293,-2.08674 -5.241185,-0.84404 -11.373739,1.59847 -16.182428,3.27803 -3.823632,1.3355 -7.624169,2.7849 -11.397358,4.3396 -12.952197,5.33676 -12.530501,5.50863 -25.159107,12.239 -5.656752,4.22172 -12.365837,8.18319 -16.7287,14.8863 -3.100312,4.76331 -2.820413,7.73603 0.909446,11.60746 1.621327,1.68287 5.634696,1.367 7.40309,1.41712 2.495351,-0.69378 4.810547,-0.95013 6.935859,-3.00749 1.751783,-1.69575 2.446603,-4.03516 2.780721,-6.7024 0.176889,-1.41209 0.263865,-2.86473 0.145005,-4.28684 -0.128326,-1.53536 -0.585876,-2.99511 -0.878816,-4.49267 -0.658172,-1.47487 -1.055415,-3.20196 -1.974522,-4.42463 -2.415859,-3.21378 -6.186067,-6.28057 -9.696435,-7.17601 -2.02243,-0.51588 -4.112438,-0.48628 -6.174281,-0.47977 -7.445362,0.0234 -9.225338,0.83106 -16.8713755,2.43006 -7.6889358,2.19306 -12.1488941,3.08633 -19.5169295,6.67202 -3.822989,1.86047 -8.611721,4.48827 -11.434465,8.73493 -0.776269,1.16787 -2.030302,2.77246 -1.53022,4.16766 0.748221,2.08751 2.948217,2.60081 4.422324,3.90122 1.996126,0.46759 3.972595,1.10566 5.988378,1.40278 7.7655163,1.14462 12.77996826,0.83227 20.8826557,0.4451 4.8002553,-0.22939 9.5995813,-0.52159 14.3922673,-0.93707 16.598564,-1.43902 13.550719,-1.26607 29.336964,-4.44168 4.304704,-1.79149 11.343717,-3.70585 15.001261,-8.28388 3.223079,-4.03421 0.342105,-6.41565 -2.193048,-8.97027 -0.906718,-0.91367 -1.961638,-1.68484 -3.088099,-1.99511 -1.435867,-0.39552 -2.936687,-0.0459 -4.405029,-0.0688 -3.979065,1.60293 -6.344666,2.08575 -9.778642,5.40611 -2.560063,2.47536 -4.355879,5.51594 -5.224132,9.48125 -0.783575,3.57861 -0.225094,5.54153 0.236958,9.02132 2.221726,3.58612 2.135408,4.19759 6.27977,6.1847 0.932544,0.44713 1.98158,0.3833 2.975569,0.31811 3.697097,-0.24241 6.12018,-2.39817 8.998043,-5.11981 0.749696,-1.06891 1.586833,-2.04628 2.249085,-3.20674 1.135564,-1.98985 2.353323,-4.76648 2.33138,-7.37595 -0.03037,-3.61203 -2.153756,-4.8045 -4.570439,-6.16572 -0.826897,-0.46575 -1.785532,-0.34459 -2.678299,-0.51689 -1.063366,0.15235 -2.152962,0.11924 -3.190097,0.45736 -1.199205,0.39095 -2.363097,0.98729 -3.464361,1.71209 -2.325162,1.53025 -4.194474,3.26533 -5.492418,6.25583 -0.553839,1.27608 -1.07937,2.69105 -1.093771,4.15222 -0.01472,1.49137 0.673768,2.85442 1.010652,4.28164 0.923723,1.31628 1.69211,2.84505 2.771173,3.94883 1.755629,1.79582 3.649351,3.40417 5.662298,4.67776 3.050966,1.93037 7.185831,2.74973 10.520094,2.96538 1.752631,0.11332 3.533762,0.21217 5.262815,-0.17325 1.31227,-0.2925 2.488575,-1.22125 3.73286,-1.83186 1.852571,-1.58603 3.57284,-2.43869 4.441682,-5.26873 0.27108,-0.88296 0.279786,-1.90517 0.155005,-2.84078 -0.58505,-4.38675 -4.554364,-6.73701 -7.299548,-8.5327 -1.334761,-0.3447 -2.651266,-0.83994 -4.004276,-1.03412 -3.485511,-0.50022 -8.376041,-0.29841 -11.756341,0.1088 -4.413855,0.53159 -11.348496,1.9919 -15.586396,3.304 -2.56119,0.79299 -5.059776,1.8892 -7.589666,2.83379 -3.343832,2.0549 -6.766169,3.27972 -8.991383,7.38886 -0.568687,1.05014 -1.155024,2.49168 -0.813508,3.69361 0.886542,3.12008 3.731812,5.10628 6.023918,5.94897 1.339789,0.49258 2.740967,0.64842 4.111452,0.97263 1.737887,0.1222 3.474144,0.29227 5.213664,0.36684 4.289336,0.18389 9.31011,0.14447 13.563762,0.0274 7.291252,-0.20067 14.596127,-0.58636 21.821333,-1.95081 3.394437,-0.98062 5.649594,-1.23161 8.634148,-3.42778 1.669825,-1.22873 3.489778,-3.58812 4.52504,-5.6677 0.549235,-1.10325 0.978313,-2.30958 1.324741,-3.54142 0.359106,-1.27695 0.52092,-2.63183 0.781384,-3.94772 0.120524,-1.4439 0.301003,-2.8816 0.361582,-4.3317 0.13636,-3.26389 0.08539,-6.35095 -0.559091,-9.54212 -0.584253,-2.89297 -1.796125,-6.3901 -3.447063,-8.56979 -1.448056,-1.91184 -3.198832,-3.40157 -4.798245,-5.10233 -1.385494,-0.95132 -2.710899,-2.06416 -4.156476,-2.85395 -3.536934,-1.93242 -8.466215,-3.47551 -12.122813,-4.51558 -8.359698,-2.3778 -16.84374,-3.90758 -25.387998,-4.62831 -5.913125,-0.12398 -12.024714,-0.82421 -17.644252,2.15007 -1.050444,0.55595 -2.116224,1.17104 -2.987489,2.10823 -1.43337,1.5418 -1.801669,3.84409 -2.37747,5.95466 -0.110423,1.2549 -0.364802,2.50253 -0.331271,3.76469 0.08067,3.03653 0.830295,5.33562 1.89527,8.00791 1.204787,3.02312 2.584672,5.90486 4.629189,8.14147 1.573208,1.72103 3.372124,3.06848 5.058188,4.60273 1.26621,0.88829 2.483853,1.90209 3.79863,2.66488 6.263763,3.63403 13.116085,4.34336 19.883782,3.66221 2.108301,-0.2759 3.172586,-0.38192 5.214558,-0.76701 1.277222,-0.24088 2.535878,-0.60517 3.807896,-0.88087 0.222207,-0.0481 0.446126,-0.0822 0.669189,-0.12338 l -2.078938,-1.86947 z"
       sodipodi:nodetypes="cscscssscsscsscssccsscsscssscssscssscssscsssscsssscssscsscssssscssscssscsscssscssscssscssscsssscssscssscsscsssscssscsssscssscsssscsssscssscssscsssscsscscsscssscsscsscssscccccssscsscssscssscssscssscscscssscssscssscssscssscssscssscssscsscssscssscssscssscssscsscssscssscssscssscssscsscsscssscsssscsssscsscssscssscsccssscssscsscsscssscscssccc" />
    <path
       style="fill:#999999;fill-opacity:0.04830918;stroke-width:0.278797"
       id="path11752"
       d="m 67.315029,180.35686 c -7.794715,5.06201 -16.301652,8.01837 -24.677353,11.08003 -7.163569,2.5037 -14.306194,5.1031 -21.467853,7.61549 -5.009708,1.75744 -8.966435,3.18612 -14.0466602,4.56567 -2.3610261,0.64117 -4.7447411,1.13942 -7.11711059,1.70912 -6.87744901,1.03169 -13.87260621,1.36722 -20.64050721,-0.88124 -1.943041,-0.64552 -3.8196,-1.59619 -5.670999,-2.58459 -4.279738,-2.28477 -3.610499,-1.73114 -5.712308,-4.05387 -2.021827,-2.38481 -4.798144,-4.67521 -5.669717,-8.25031 -0.174741,-0.71679 -0.275209,-1.51579 -0.134262,-2.24445 0.347969,-1.79893 1.705181,-2.66824 2.737443,-3.65774 1.308426,-0.47687 2.584845,-1.12926 3.925277,-1.43066 6.36432,-1.43094 12.984591,-1.59703 19.406884,-1.34903 5.3635103,0.20701 10.7231159,0.65323 16.0664117,1.27907 15.1121623,1.76997 22.3577733,3.51981 37.3438983,6.49959 16.271396,3.54561 32.335465,8.45165 48.23524,14.059 10.003005,3.52776 19.920227,7.47137 29.847897,11.32334 4.3729,1.42396 8.72175,3.88456 13.27246,4.40482 0.65069,0.0744 1.30608,-0.0489 1.95913,-0.0733 0,0 -2.85368,-2.61199 -2.85368,-2.61199 v 0 c -0.60662,0.0325 -1.21441,0.15526 -1.81987,0.0976 -4.38345,-0.41692 -8.54251,-2.66261 -12.76223,-3.97703 -9.73618,-3.62465 -19.454413,-7.37366 -29.251196,-10.72737 -15.784669,-5.40354 -31.716935,-10.17756 -47.841565,-13.65144 -14.522088,-2.87696 -22.938414,-4.78593 -37.5934478,-6.71293 -5.4802764,-0.7206 -10.9753142,-1.29657 -16.4783372,-1.63821 -6.288064,-0.39039 -13.804769,-0.47255 -20.207683,0.74708 -1.425982,0.27149 -2.787206,0.93992 -4.180808,1.40987 -1.182362,1.13602 -2.545939,1.98527 -2.955971,4.00607 -0.159765,0.78738 -0.06393,1.65473 0.116957,2.43473 0.863457,3.72329 3.761242,6.09138 5.837381,8.5778 2.141287,1.68174 4.227755,3.48152 6.423861,5.04522 2.863173,2.0387 7.211335,4.3567 10.33771,5.35084 6.774444,2.15423 13.7637474,1.73805 20.6285786,0.70658 2.3768145,-0.57298 4.7653602,-1.07245 7.1304392,-1.71896 5.6201852,-1.53626 8.4557722,-2.66629 14.0003822,-4.62187 7.180015,-2.5324 14.368996,-5.02315 21.551698,-7.5432 8.563776,-2.95727 17.180874,-5.93626 25.272346,-10.64943 0,0 -3.012439,-2.53441 -3.012439,-2.53441 z" />
    <path
       style="fill:#999999;fill-opacity:0.04830918;stroke-width:0.278797"
       id="path11754"
       d="m 91.108394,169.25583 c -1.416472,1.9012 -2.800162,3.84267 -4.249408,5.70369 -8.363522,10.73967 -17.16417,20.90241 -25.993597,31.01529 -10.18407,11.66443 -9.509761,10.8414 -19.750734,22.28934 -10.311908,11.01112 -20.744386,23.00794 -33.3331993,29.7354 -6.85564013,3.66362 -7.89592723,3.2594 -15.1090633,4.55476 -7.2448214,0.5314 -14.3629994,-0.98082 -21.3616664,-3.20173 -1.998524,-0.63424 -3.963773,-1.42679 -5.94566,-2.14015 0,0 2.391973,2.33469 2.391973,2.33469 v 0 c 1.960367,0.68333 3.905433,1.4418 5.881103,2.05002 7.003674,2.15609 14.117392,3.65183 21.3547223,3.03272 7.2321666,-1.37268 8.2223052,-0.9557 15.0623777,-4.73587 5.686072,-3.1424 10.601308,-7.23327 15.585991,-11.89012 6.719254,-6.27736 10.981553,-11.27096 17.337808,-18.26916 17.147147,-19.23549 34.158191,-38.66604 51.115306,-58.17082 0,0 -2.985953,-2.30806 -2.985953,-2.30806 z" />
    <path
       style="fill:#999999;fill-opacity:0.04830918;stroke-width:0.279236;stroke-dasharray:none"
       id="path11756"
       d="m 3.6329073,217.31933 c 4.732491,-0.15414 17.0394707,-0.51907 20.9765727,-0.82977 6.921924,-0.54628 21.590634,-2.35517 28.471296,-3.57575 10.980312,-1.94789 14.395627,-3.13731 24.889559,-6.03879 0,0 -1.937693,-1.70529 -1.937693,-1.70529 v 0 c -3.786984,1.1098 -7.54932,2.36509 -11.36095,3.32939 -9.952638,2.5179 -17.280968,3.7496 -27.435465,4.94583 -4.82314,0.5682 -9.655095,1.04426 -14.49364,1.33236 -6.870972,0.40911 -14.710826,0.24406 -21.6691827,0.18156 0,0 2.559503,2.36034 2.559503,2.36034 z" />
    <path
       style="fill:#999999;fill-opacity:0.04830918;stroke-width:0.279236;stroke-dasharray:none"
       id="path11758"
       d="m 59.447436,166.9794 c -8.246647,11.35683 -16.646429,22.53206 -24.99326,33.76973 -2.898008,3.90172 -5.75571,7.85197 -8.683108,11.71815 -2.73673,3.61441 -5.538807,7.14814 -8.308213,10.72222 -2.434327,2.97721 -4.868654,5.95445 -7.302978,8.93169 0,0 2.17162,1.69245 2.17162,1.69245 v 0 c 2.377596,-3.0239 4.755195,-6.04783 7.132794,-9.07173 2.741784,-3.59722 5.496118,-7.17908 8.225347,-10.79163 2.927186,-3.8746 5.818111,-7.79312 8.743746,-11.66961 8.474391,-11.22857 17.057771,-22.33024 25.959411,-33.01638 0,0 -2.945359,-2.28489 -2.945359,-2.28489 z" />
    <path
       style="fill:#999999;fill-opacity:0.04830918;stroke-width:0.278797"
       id="path11760"
       d="m -2.9154921,197.06175 c 12.6240955,10.10988 25.4796461,19.732 38.3905401,29.2359 13.584724,9.99993 27.242594,19.80923 40.972816,29.48189 0,0 -1.761839,-1.80383 -1.761839,-1.80383 v 0 c -25.28817,-17.62977 -50.425824,-35.67497 -74.70573437,-55.4794 0,0 -2.89578273,-1.43456 -2.89578273,-1.43456 z" />
    <path
       style="fill:#999999;fill-opacity:0.04830918;stroke-width:0.278797"
       id="path11762"
       d="M 33.949493,222.58632 C 23.159269,234.40721 11.89738,245.54994 0.27781886,256.02813 -7.3665441,262.92157 -15.444504,269.84776 -23.674149,275.62322 c -3.159628,2.21738 -6.47262,4.06281 -9.708931,6.09421 0,0 2.066193,1.72269 2.066193,1.72269 v 0 c 3.158225,-2.10525 6.387785,-4.04643 9.474672,-6.31574 8.035359,-5.90719 16.1464505,-13.04408 23.6920964,-19.83098 11.7487406,-10.56733 23.1270696,-21.75874 34.6794546,-32.66298 0,0 -2.579843,-2.0441 -2.579843,-2.0441 z" />
    <path
       style="fill:#999999;fill-opacity:0.04830918;stroke-width:0.279236;stroke-dasharray:none"
       id="path11764"
       d="m 11.472427,182.59081 c 11.644904,12.25407 5.582247,5.9034 18.193506,19.04346 0,0 2.095732,1.07226 2.095732,1.07226 v 0 c -12.189419,-12.84473 -6.440709,-6.65209 -17.275235,-18.5343 0,0 -3.014003,-1.58142 -3.014003,-1.58142 z" />
    <path
       style="fill:#999999;fill-opacity:0.04830918;stroke-width:0.279236;stroke-dasharray:none"
       id="path11766"
       d="m 20.058017,165.0786 c 7.858651,7.87626 15.775291,15.65606 23.724693,23.3838 0,0 2.354872,1.19188 2.354872,1.19188 v 0 c -7.743488,-7.50299 -15.486416,-15.01182 -22.951901,-22.96162 0,0 -3.127664,-1.61406 -3.127664,-1.61406 z" />
    <path
       style="fill:#999999;fill-opacity:0.04830918;stroke-width:0.278797"
       id="path11768"
       d="m 38.175909,149.15737 c 8.351559,12.15854 16.435754,24.62746 23.623256,37.94767 1.816715,3.36681 3.495883,6.84989 5.243823,10.27485 0,0 2.379031,1.32488 2.379031,1.32488 v 0 c -1.782725,-3.44959 -3.503757,-6.95186 -5.348184,-10.34882 -7.069141,-13.01962 -14.915622,-25.29917 -22.803566,-37.52148 0,0 -3.09436,-1.6771 -3.09436,-1.6771 z" />
    <path
       style="fill:#999999;fill-opacity:0.04830918;stroke-width:0.279236;stroke-dasharray:none"
       id="path11770"
       d="M 47.651876,167.88796 C 35.230324,180.57714 22.542459,192.838 9.9909826,205.31744 c -3.7877681,3.766 -7.5516173,7.57063 -11.3274248,11.35595 0,0 1.72892483,1.37918 1.72892483,1.37918 v 0 c 3.74262627,-3.81048 7.45509487,-7.66916 11.22787637,-11.43143 12.68022,-12.64486 25.64855,-24.82738 38.95442,-36.3919 0,0 -2.922903,-2.34128 -2.922903,-2.34128 z" />
    <ellipse
       id="path11772"
       style="fill:#999999;stroke:#000000;stroke-width:0.279236;stroke-dasharray:none;fill-opacity:0.04830918"
       cx="-8.0053406"
       cy="208.7756"
       rx="0.045454904"
       ry="0.05769496" />
    <path
       style="fill:#999999;fill-opacity:0.04830918;stroke-width:0.278797"
       id="path11774"
       d="m -15.718821,180.99134 c -0.382454,0.64623 -0.740149,1.31731 -1.147362,1.93867 -2.991941,4.56551 -6.286932,8.81399 -9.519937,13.09917 0,0 2.667302,2.06523 2.667302,2.06523 v 0 c 5.173329,-6.82062 2.058881,-2.74236 7.218727,-9.43526 0.883088,-1.14547 1.781577,-2.27222 2.647071,-3.43913 0.452412,-0.60997 0.870238,-1.25981 1.305357,-1.88972 0,0 -3.171158,-2.33896 -3.171158,-2.33896 z" />
    <path
       style="fill:#999999;fill-opacity:0.04830918;stroke-width:0.278797"
       id="path11776"
       d="m -32.251048,213.74035 c 4.577416,3.82573 9.327239,7.41427 14.380386,10.1404 2.86419,1.54519 4.259503,2.03002 7.155247,3.21361 0,0 -2.626898,-2.58478 -2.626898,-2.58478 v 0 c -2.965537,-1.21012 -4.134668,-1.59438 -7.079378,-3.20671 -1.250215,-0.68452 -2.451301,-1.50609 -3.689954,-2.22369 -0.178137,-0.10323 -0.3866,-0.11454 -0.557047,-0.23672 -1.523793,-1.09371 -2.764225,-2.18073 -4.19545,-3.39249 0,0 -3.386906,-1.70962 -3.386906,-1.70962 z" />
    <path
       style="fill:#999999;fill-opacity:0.04830918;stroke-width:0.279236;stroke-dasharray:none"
       id="path11778"
       d="m -29.880258,245.12856 c -0.54769,-1.10082 -1.095377,-2.20163 -1.643067,-3.30245 0,0 -3.098513,-1.74039 -3.098513,-1.74039 v 0 c 0.488761,1.06323 0.977526,2.12646 1.466286,3.18969 0,0 3.275294,1.85315 3.275294,1.85315 z" />
    <path
       style="fill:#999999;fill-opacity:0.04830918;stroke-width:0.279236;stroke-dasharray:none"
       id="path11780"
       d="m -18.608488,167.50444 c 2.338445,2.21235 4.694622,3.35423 7.350738,4.52334 0,0 -2.769965,-2.74276 -2.769965,-2.74276 v 0 c -0.60945,-0.28196 -1.226445,-0.53918 -1.82835,-0.84628 -1.792082,-0.9143 -2.855497,-1.86025 0.679197,0.79789 0,0 -3.43162,-1.73219 -3.43162,-1.73219 z" />
    <path
       style="fill:#999999;fill-opacity:0.04830918;stroke-width:0.279236;stroke-dasharray:none"
       id="path11782"
       d="m -7.1261851,214.84473 c 1.1825172,2.77743 1.7599336,4.13074 3.0948546,7.28703 0.8802097,2.0812 1.73802,4.1778 2.6358207,6.24685 3.6458432,8.40206 7.4956379,16.65441 11.3572795,24.89805 2.9980313,6.43783 6.1551843,12.74961 9.3668353,19.01747 0,0 2.903131,1.6137 2.903131,1.6137 v 0 c -3.342965,-6.30141 -6.617476,-12.6594 -9.6924,-19.1797 -5.8095554,-12.37981 -11.5028339,-24.87005 -16.3245122,-37.92952 0,0 -3.3410089,-1.95388 -3.3410089,-1.95388 z" />
    <path
       style="fill:#999999;fill-opacity:0.04830918;stroke-width:0.279236;stroke-dasharray:none"
       id="path11784"
       d="m 70.040808,262.63491 c 0.146454,-1.91825 0.01114,-0.86348 0.488055,-3.14554 0,0 -3.124749,-2.16373 -3.124749,-2.16373 v 0 c -0.572867,2.32049 -0.370021,1.24061 -0.664385,3.22198 0,0 3.301079,2.08729 3.301079,2.08729 z" />
    <ellipse
       id="path11786"
       style="fill:#999999;stroke:#000000;stroke-width:0.279236;stroke-dasharray:none;fill-opacity:0.04830918"
       cx="61.269535"
       cy="166.32707"
       rx="0.045454904"
       ry="0.05769496" />
    <path
       style="fill:#999999;fill-opacity:0.04830918;stroke-width:0.279236;stroke-dasharray:none"
       id="path11788"
       d="m 128.89751,170.68844 c 1.13912,0.0916 0.43891,0.0486 2.1021,0.0817 0,0 -2.87758,-2.6754 -2.87758,-2.6754 v 0 c -1.73795,-0.13433 -1.00835,-0.0506 -2.19169,-0.20673 0,0 2.96717,2.80048 2.96717,2.80048 z" />
    <path
       style="fill:#999999;fill-opacity:0.04830918;stroke-width:0.279236;stroke-dasharray:none"
       id="path11790"
       d="m 37.450964,243.23287 c -1.049877,1.37121 -2.182749,2.67064 -3.406656,3.78911 -0.73297,0.66984 -1.507543,1.26306 -2.261324,1.89458 0,0 2.876111,2.34493 2.876111,2.34493 v 0 c 0.77981,-0.62547 1.577287,-1.21683 2.339431,-1.87646 1.280145,-1.10794 2.450982,-2.39193 3.601673,-3.70265 0,0 -3.149235,-2.44951 -3.149235,-2.44951 z" />
    <path
       style="fill:#999999;fill-opacity:0.04830918;stroke-width:0.279236;stroke-dasharray:none"
       id="path11792"
       d="m 64.316984,161.84502 c 0.218,5.68199 0.884095,20.45744 0.137854,26.07412 -0.319141,2.40209 -0.790641,4.76755 -1.185962,7.15134 l 2.698003,1.83774 v 0 c 0.416477,-2.38159 0.903529,-4.74501 1.249448,-7.14472 0.800704,-5.5547 2.19012,-19.83161 2.205684,-25.46818 z"
       sodipodi:nodetypes="csccsscc" />
    <path
       style="fill:#999999;fill-opacity:0.04830918;stroke-width:0.278797"
       id="path11796"
       d="m -1.5402332,222.18461 c 1.26552828,1.5284 2.51201053,3.08265 3.7965848,4.58525 1.935218,2.26368 3.847415,4.56336 5.861981,6.71264 6.9883544,7.45561 12.4502464,12.55023 20.0377274,19.26722 3.575232,3.16503 7.234058,6.17516 10.85108,9.26275 0,0 2.046123,1.01719 2.046123,1.01719 v 0 C 37.42297,259.93899 33.745267,256.93621 30.162384,253.75764 20.066702,244.8012 10.228761,235.25663 1.7106214,223.90886 c 0,0 -3.2508546,-1.72425 -3.2508546,-1.72425 z" />
    <path
       style="fill:#999999;fill-opacity:0.04830918;stroke-width:0.278797"
       id="path11798"
       d="m -2.4907603,250.74097 c 3.43757372,2.11829 6.7544677,4.58649 10.3127188,6.35477 4.7118275,2.34159 9.5957595,4.08762 14.4394155,5.94597 11.299761,4.33535 23.113617,8.20616 34.520853,12.06484 0,0 -1.322822,-1.28781 -1.322822,-1.28781 v 0 c -12.163338,-4.08628 -22.672348,-7.42583 -34.702646,-12.26137 -5.072781,-2.03898 -10.083433,-4.3228 -15.0842705,-6.63042 -1.7006143,-0.78472 -3.342103,-1.76228 -5.01315446,-2.64341 0,0 -3.15009434,-1.54257 -3.15009434,-1.54257 z" />
    <path
       style="fill:#999999;fill-opacity:0.04830918;stroke-width:0.278797"
       id="path11800"
       d="m 32.279704,277.19466 c 6.090932,0.50677 12.062049,1.0378 18.175677,1.36716 3.664038,0.19741 7.331265,0.28361 10.996893,0.42544 0,0 -1.97212,-1.8307 -1.97212,-1.8307 v 0 c -3.6708,-0.15073 -7.344727,-0.20786 -11.012392,-0.45241 -9.324686,-0.62162 -10.497529,-0.94759 -19.017188,-2.21243 0,0 2.82913,2.70294 2.82913,2.70294 z" />
    <path
       style="fill:#999999;fill-opacity:0.04830918;stroke-width:0.278797"
       id="path11802"
       d="m 95.929438,229.91266 c -9.066682,1.16767 -18.192617,1.36332 -27.295141,1.69627 0,0 2.052714,1.88418 2.052714,1.88418 v 0 c 9.405849,-0.18694 18.81544,-0.2885 28.211328,-0.91985 0,0 -2.968901,-2.6606 -2.968901,-2.6606 z" />
    <path
       style="fill:#999999;fill-opacity:0.04830918;stroke-width:0.278797"
       id="path11804"
       d="m 60.485097,245.447 c -6.1273,3.58661 -2.700751,1.71698 -10.33365,5.44672 0,0 2.442733,2.08949 2.442733,2.08949 v 0 c 7.942302,-3.55423 4.309952,-1.85897 10.912998,-5.0303 0,0 -3.022081,-2.50591 -3.022081,-2.50591 z" />
    <path
       style="fill:#999999;fill-opacity:0.04830918;stroke-width:0.279236;stroke-dasharray:none"
       id="path11806"
       d="m 82.176759,221.62739 c 0.104878,1.20353 0.05639,0.56947 0.141107,1.90264 0,0 3.258132,2.07103 3.258132,2.07103 v 0 c -0.06116,-1.32506 -0.03246,-0.69526 -0.08632,-1.88938 0,0 -3.312928,-2.08429 -3.312928,-2.08429 z" />
    <path
       style="fill:#999999;fill-opacity:0.04830918;stroke-width:0.279236;stroke-dasharray:none"
       id="path11808"
       d="m 95.03514,194.48874 c 0.198436,1.0091 0.257513,2.02761 0.288564,3.06171 0,0 3.24065,2.08435 3.24065,2.08435 v 0 c -0.0056,-1.04657 -0.05078,-2.07035 -0.207104,-3.10137 0,0 -3.322104,-2.04469 -3.322104,-2.04469 z" />
    <path
       style="fill:#999999;fill-opacity:0.04830918;stroke-width:0.278797"
       id="path11810"
       d="m 88.211092,210.4223 c 2.342544,2.68359 4.217498,5.92879 5.890129,9.30335 1.004272,2.03715 1.906651,4.13745 2.469239,6.44117 0.316717,1.29689 0.379328,1.84959 0.588188,3.15652 0.360956,2.32898 0.42421,4.4946 0.119873,6.82901 -0.267961,1.80564 -0.520678,3.61079 -0.970955,5.35947 -0.414587,1.66845 -1.220333,3.06336 -2.135789,4.342 -0.555294,0.87853 -1.268033,1.55069 -2.020765,2.13229 -0.485352,0.37289 -0.97554,0.97199 -1.548088,1.09026 -1.220979,-1.45712 1.05371,1.34039 1.896297,0.93289 0.605032,-0.2926 -0.924398,-1.15175 -1.365827,-1.75295 -1.409421,-1.91942 -2.701856,-3.9653 -3.972752,-6.03152 -0.923067,-1.74265 -2.887848,-5.23602 -2.250473,-7.53517 0.104878,-0.37831 0.343711,-0.67314 0.515562,-1.00972 2.171582,-2.18899 4.920388,-3.05071 7.594954,-3.68664 1.582067,-0.35433 3.188423,-0.40151 4.790206,-0.39981 1.08245,0.008 2.1632,0.0749 3.243299,-0.0305 0.99098,-0.18864 0.48408,-0.075 1.51991,-0.34611 0,0 -2.989548,-2.64841 -2.989548,-2.64841 v 0 c -1.029365,0.23247 -0.526281,0.14084 -1.508461,0.28168 -1.076783,0.0543 -2.15395,-0.008 -3.231465,0.0113 -1.600594,0.0255 -3.204472,0.10718 -4.777766,0.5187 -2.740614,0.72977 -5.567022,1.67835 -7.766765,3.98346 -0.201022,0.39774 -0.474446,0.74979 -0.603049,1.19326 -0.712236,2.45602 1.239927,6.03254 2.234658,7.91117 1.37443,2.23802 1.053364,1.76242 2.54754,3.99516 1.933476,2.8892 4.088839,6.43025 7.187203,7.27048 0.572644,-0.29641 1.085119,-0.76364 1.591982,-1.20791 0.764741,-0.63296 1.489408,-1.33448 2.049039,-2.26354 0.929672,-1.34364 1.769444,-2.78563 2.208948,-4.50849 0.466148,-1.7719 0.708244,-3.60039 0.975254,-5.43448 0.12707,-0.89614 0.20348,-1.27547 0.2438,-2.18104 0.072,-1.6168 -0.14737,-3.23394 -0.34162,-4.8243 -0.487679,-3.08689 -1.009582,-5.33945 -2.266841,-8.08889 -0.258262,-0.56477 -0.524445,-1.12363 -0.786673,-1.68544 -1.638102,-3.36316 -3.487335,-6.56821 -5.710808,-9.35361 0,0 -3.418438,-1.7635 -3.418438,-1.7635 z" />
    <path
       style="fill:#999999;fill-opacity:0.04830918;stroke-width:0.279236;stroke-dasharray:none"
       id="path11812"
       d="m 101.12237,210.42179 c 0.31153,3.90146 3.19352,7.71803 4.0228,14.51028 0.45217,3.70355 1.75262,5.34488 1.38844,9.04003 -0.81046,5.333 -0.33985,2.7435 -1.39376,7.77372 l 2.97556,2.04767 v 0 c 1.03028,-5.08738 0.56706,-2.47183 1.37328,-7.85124 0.34157,-3.48225 0.56194,-5.22101 0.70501,-8.73994 0.15755,-3.87522 -0.0441,-7.74343 -0.13954,-11.61534 z"
       sodipodi:nodetypes="cscccscscc" />
  </g>
</svg>
