<?xml version="1.0" encoding="UTF-8" standalone="no"?>
<!-- Created with Inkscape (http://www.inkscape.org/) -->

<svg
   width="136.96162mm"
   height="23.260141mm"
   viewBox="0 0 136.96162 23.260141"
   version="1.1"
   id="svg5"
   inkscape:version="1.2 (dc2aedaf03, 2022-05-15)"
   sodipodi:docname="logo_black.svg"
   xmlns:inkscape="http://www.inkscape.org/namespaces/inkscape"
   xmlns:sodipodi="http://sodipodi.sourceforge.net/DTD/sodipodi-0.dtd"
   xmlns="http://www.w3.org/2000/svg"
   xmlns:svg="http://www.w3.org/2000/svg">
  <sodipodi:namedview
     id="namedview7"
     pagecolor="#ffffff"
     bordercolor="#000000"
     borderopacity="0.25"
     inkscape:showpageshadow="2"
     inkscape:pageopacity="0.0"
     inkscape:pagecheckerboard="0"
     inkscape:deskcolor="#d1d1d1"
     inkscape:document-units="mm"
     showgrid="false"
     showguides="false"
     inkscape:zoom="1.4503086"
     inkscape:cx="253.73909"
     inkscape:cy="126.18004"
     inkscape:window-width="1920"
     inkscape:window-height="1001"
     inkscape:window-x="-9"
     inkscape:window-y="-9"
     inkscape:window-maximized="1"
     inkscape:current-layer="layer1"
     inkscape:lockguides="false" />
  <defs
     id="defs2" />
  <g
     inkscape:label="Layer 1"
     inkscape:groupmode="layer"
     id="layer1"
     transform="translate(-85.542779,-157.73711)">
    <path
       d="m 99.752662,165.0734 c 0.272848,-0.58705 0.620118,-1.02113 1.041798,-1.30225 0.42168,-0.28112 0.93844,-0.42168 1.55029,-0.42168 1.19889,0 5.20072,0.41341 5.65547,1.24024 0.34744,1.42508 1.36095,1.96588 0.94422,2.59474 -0.59213,0.89358 -0.24969,1.14034 -0.24969,2.56463 v 7.82588 h -3.50573 c 0.61553,-2.35689 2.9e-4,-5.94456 0,-8.91728 -8e-5,-0.8511 -0.56288,-1.17133 -0.23564,-2.07119 0.8023,-2.20626 -2.76893,-1.47867 -3.63842,-0.97698 -0.35808,0.20661 -0.56598,0.63385 -0.73134,0.98938 -0.16537,0.35553 -0.24805,1.0418 -0.24805,2.05879 0,0 -0.49534,7.34059 0.22804,8.96289 0,0 -3.379392,0.48641 -3.997687,-0.27365 -0.596756,-0.73358 -0.228041,-8.68924 -0.228041,-8.68924 0,-1.01699 -0.08268,-1.70326 -0.248046,-2.05879 -0.165365,-0.35553 -0.454753,-0.5333 -0.868165,-0.5333 -0.413411,0 -2.01719,-0.50582 -2.972428,1.05007 -0.199418,0.32481 -0.235645,0.50849 -0.235645,1.54202 0,0 0.280068,1.029 -0.228041,1.55178 -0.437651,0.45028 0.47473,0.51557 0.228041,1.86993 -0.444409,2.43988 0,5.49557 0,5.49557 H 85.77082 c 0,0 0.194325,-1.92857 -0.228041,-3.71685 0.200579,-0.86086 0.319257,-8.84797 0.319257,-8.84797 l 0.04561,-1.64506 c 0,0 2.810468,0.22997 3.556206,0.31926 0.745738,0.0893 2.279385,-0.35475 2.279385,-0.35475 l -0.257999,2.72866 c 0.206706,-0.54571 0.988932,-1.7819 1.443684,-2.09609 2.005429,-0.64172 2.821918,-0.61269 3.384158,-0.61269 0.562239,0 2.133203,0.1695 2.596224,0.5085 0.463021,0.33073 0.744141,0.73587 0.84336,1.21543 z"
       style="font-weight:bold;font-size:25.4px;font-family:monospace;-inkscape-font-specification:'monospace Bold';fill:#000000;stroke-width:0.264583"
       id="path1377"
       sodipodi:nodetypes="csscssccssssssssssssssccccczcccsccc" />
    <path
       d="m 119.94884,170.93731 c -1.25032,-0.21097 -1.61735,-0.59 -2.86819,0.13714 -0.55319,0.32158 -0.95796,1.07225 -0.95796,1.9156 0,0.62839 0.16876,1.85673 0.54083,2.2288 0.37207,0.37207 1.25037,0.46712 1.80563,0.7786 0.86237,0.48374 1.12276,-0.39192 1.65193,-1.11125 0.52916,-0.72761 0.5035,-2.28871 0.5035,-3.58682 v -0.24805 z m 4.54282,-1.22295 c 0,0 -0.70875,3.73623 -0.22575,8.15085 0.0287,0.2623 -3.87179,0.44679 -3.70583,-0.0645 0.16596,-0.51129 0.0645,-1.77604 0.0645,-1.77604 -0.43822,0.61185 -1.00046,1.08314 -1.68672,1.41387 -0.68626,0.33073 -1.44281,0.49609 -2.26963,0.49609 -1.57923,0 -2.58545,-0.6433 -3.47015,-1.47839 -0.87643,-0.83509 -1.5404,-1.77516 -1.5404,-3.27171 0,-1.62057 0.52504,-2.81533 1.5751,-3.58428 1.05007,-0.77721 2.67477,-1.16582 4.87412,-1.16582 l 2.51768,0.4515 0.74174,0.61778 c 0.45109,0.3757 -0.18272,-2.48064 -0.61267,-2.77829 -0.42168,-0.30593 1.5663,-0.68464 -2.45325,-1.74888 -0.83924,-0.22221 -1.45352,0.27287 -2.27208,0.49612 -1.03603,0.66646 -1.69003,1.75548 -2.38123,2.71878 0,0 0.21174,-1.56461 -1.41899,-2.77809 -1.63073,-1.21348 2.42336,-1.66762 3.24951,-1.82823 2.63281,-0.51185 2.26057,-0.42948 3.17754,-0.30015 2.51522,0.35475 3.29235,0.52339 4.20185,1.44116 0.91777,0.91777 1.70013,2.62443 1.63466,4.98823 z"
       style="font-weight:bold;font-size:25.4px;font-family:monospace;-inkscape-font-specification:'monospace Bold';fill:#000000;stroke-width:0.264583"
       id="path1379"
       sodipodi:nodetypes="ssssscscssszcsscscscscscczsscs" />
    <path
       d="m 128.46699,171.78307 0.18243,-0.79827 -0.18243,-9.91736 c 0,0 -1.28808,0.44168 -1.56683,0 -0.15604,-0.24726 -0.65773,-2.1328 0,-2.79053 1.22582,-1.22582 7.03708,0.0302 6.45962,-0.0456 -0.21241,-0.0279 -0.542,2.9745 -0.47822,4.11818 0.0132,0.23678 0.86815,0.21131 0.3749,0.99757 -0.1864,0.29714 -0.61603,1.87215 -0.40951,2.35242 0.0237,0.055 -0.20295,0.44728 -0.31816,0.90911 -0.0486,0.19481 0.21369,0.67502 0.22188,1.32087 0.0197,1.55575 -0.12064,3.85362 -0.12064,3.85362 0,1.09141 0.69867,2.39366 1.03766,2.84841 0.339,0.45475 0.91364,0.68212 1.72393,0.68212 h 2.90215 l -0.52917,2.79053 h -3.91914 c -1.72806,0 -3.49746,-0.44648 -4.24987,-1.33945 -0.45276,-0.53735 -0.92926,-2.14111 -0.98125,-3.90982 -0.007,-0.23886 -1.40988,-0.28272 -0.14736,-1.07179 z"
       style="font-weight:bold;font-size:25.4px;font-family:monospace;-inkscape-font-specification:'monospace Bold';fill:#000000;stroke-width:0.264583"
       id="path1381"
       sodipodi:nodetypes="sccsssssssssssccsssss" />
    <path
       id="path1383"
       style="font-weight:bold;font-size:25.4px;font-family:monospace;-inkscape-font-specification:'monospace Bold';fill:#000000;stroke-width:0.264583"
       d="m 150.30349,163.34971 c -1.95958,0 -7.22644,0.65733 -8.39226,1.97198 -1.15754,1.30638 -1.73632,3.07991 -1.73632,5.3206 0,2.24069 0.57878,4.01836 1.73632,5.33301 1.16582,1.30638 6.43268,1.95957 8.39226,1.95957 1.96782,0 3.53053,-0.12402 4.68808,-1.4304 1.16582,-1.31465 1.74873,-3.62149 1.74873,-5.86218 0,-0.82082 -0.0561,-2.03311 0.0693,-2.5001 0.11378,-0.42378 -0.58539,-0.81827 -0.66249,-0.94051 -0.10195,-0.16169 -0.43364,-0.47018 -0.47904,-0.87024 -0.0463,-0.4078 -0.43645,-0.74081 -0.67645,-1.00975 -1.15755,-1.31465 -2.72026,-1.97198 -4.68808,-1.97198 z m -3.175,2.95176 c 0.87643,0 1.5627,0.38447 2.05879,1.15342 0.15049,0.23075 0.62897,1.09283 0.56637,1.51257 -0.057,0.38217 0.52392,0.41103 0.63769,0.50953 0.27451,0.2377 -0.45992,0.7489 -0.45992,1.1653 0,1.36426 -0.24805,2.43086 -0.74414,3.19981 -0.49609,0.76067 -1.18236,1.14101 -2.05879,1.14101 -0.86817,0 -2.07946,-0.38034 -2.57556,-1.14101 -0.49609,-0.76895 -0.74414,-1.83555 -0.74414,-3.19981 0,-1.36426 0.24805,-2.42673 0.74414,-3.1874 0.4961,-0.76895 1.70739,-1.15342 2.57556,-1.15342 z m 5.49113,8.29769 c 0.12935,-0.002 0.27683,0.0283 0.43667,0.0982 0.42703,0.18654 0.18215,0.57834 0.98599,0.67231 0.38778,0.0453 -0.66263,0.88935 -1.12862,0.88935 -0.46599,0 -0.77081,-0.56163 -0.83819,-0.94619 -0.0715,-0.40799 0.15613,-0.70726 0.54415,-0.71365 z" />
    <path
       d="m 173.37672,178.46625 c -0.16437,0.2624 -0.129,2.45319 -0.129,2.45319 0,0 -1.51042,0.084 -2.49594,-0.0218 -0.72274,-0.0776 -0.49035,-1.24165 -0.72509,-1.19679 -1.84511,0.35262 0.21435,1.17232 -0.49523,1.18635 -1.95169,0.0386 -6.70617,0.007 -6.92245,0.016 -0.62129,0.0256 -0.83422,-0.17729 -0.90289,-0.17729 -0.14748,0 -0.0476,0.22146 -0.7067,0.25613 -1.07464,0.0565 -3.04379,-0.0626 -3.04379,-0.0626 l -0.3225,-2.32419 c 0,0 0.75143,-0.24582 1.13826,-0.3225 1.9751,-0.39153 8.10818,0.11733 10.57747,-0.3974 0.11017,-0.023 0.13035,0.21975 0.61367,0.27613 1.20188,0.14017 3.41419,0.24062 3.41419,0.31477 z"
       style="font-weight:bold;font-size:25.4px;font-family:monospace;-inkscape-font-specification:'monospace Bold';fill:#000000;stroke-width:0.264583"
       id="path1385"
       sodipodi:nodetypes="zcssssssccssssz" />
    <path
       d="m 183.78972,170.66686 c 0,-1.33945 -0.22324,-2.38952 -0.66973,-3.1502 -0.44649,-0.76067 -1.06247,-1.14101 -1.84795,-1.14101 -0.78548,0 -1.4056,0.38034 -1.86035,1.14101 -0.45475,0.76068 -0.68213,1.81075 -0.68213,3.1502 0,1.33945 0.22738,2.38952 0.68213,3.15019 0.45475,0.76068 1.07487,1.14102 1.86035,1.14102 0.78548,0 1.40146,-0.38034 1.84795,-1.14102 0.1414,-0.2409 0.37179,-1.09133 0.56636,-1.39028 0.15266,-0.23457 0.28326,0.0935 0.3315,-0.17683 0.0479,-0.26852 -0.0643,-0.18381 -0.14248,-0.4876 -0.0595,-0.23131 -0.0857,-0.84372 -0.0857,-1.09548 z m -5.06016,-5.01055 c 0.44649,-0.76895 0.96325,-1.34359 1.55029,-1.72393 0.59531,-0.38861 1.26504,0.12659 2.00918,0.12659 0.94848,0 2.32371,-0.11429 4.61167,1.30104 0.82054,0.50759 0.77895,0.0374 1.23562,0.13262 0.0584,0.27685 -0.17721,0.3078 0.0185,0.77898 0.41919,1.00913 1.38544,2.76969 1.38544,4.37044 0,2.31511 -0.43822,4.10931 -1.31465,5.38262 -0.87643,1.27331 -4.22506,1.90996 -5.81256,1.90996 -0.83509,0 -1.5627,-0.20257 -2.18282,-0.60772 -0.62011,-0.40514 -1.12034,-1.00872 -1.50068,-1.81074 v 2.05879 h -4.15065 c 0,0 -0.005,-1.81681 -0.0858,-2.76072 -0.0283,-0.33186 -0.16572,-0.33599 -0.17745,-0.41898 -0.0545,-0.38536 0.19159,-0.61297 0.18908,-0.69695 -0.0117,-0.3914 -0.0674,-2.96822 -0.10133,-3.85417 -0.0192,-0.50138 -0.13883,-0.21625 -0.14088,-0.39611 -0.001,-0.11962 0.0978,-0.11252 0.0747,-0.37189 -0.042,-0.47209 0.073,-1.3214 0.081,-1.65783 0.0172,-0.72273 0.46088,-0.3491 0.4549,-0.46095 -0.0504,-0.94234 -0.48242,-1.07779 -0.50219,-1.47415 -0.0248,-0.49743 0.0312,-6.28362 0.30472,-6.65805 0.69947,-0.95746 4.93728,-1.16814 4.58307,-0.019 -0.9139,2.96463 -0.52917,6.85023 -0.52917,6.85023 z"
       style="font-weight:bold;font-size:25.4px;font-family:monospace;-inkscape-font-specification:'monospace Bold';fill:#000000;stroke-width:0.264583"
       id="path1387"
       sodipodi:nodetypes="ssssssssssssccsscssssscccssssssssssscc" />
    <path
       d="m 199.35467,165.94648 c -0.86816,0 -2.14207,-0.0981 -2.64006,0.66968 -0.4942,0.76189 -0.92447,2.37138 -0.92447,3.73564 0,1.36426 0.2158,3.20486 0.71189,3.97381 0.4961,0.76067 1.98448,0.65726 2.85264,0.65726 0.87643,0 2.09186,-0.38034 2.58796,-1.14101 0.49609,-0.76895 0.74414,-1.83555 0.74414,-3.19981 0,-1.36426 -0.24805,-2.42673 -0.74414,-3.1874 -0.4961,-0.76895 -1.71153,-1.50817 -2.58796,-1.50817 z m -6.42441,4.69557 c 0,-2.24069 0.59786,-4.40122 1.75541,-5.7076 1.16582,-1.31465 2.70943,-1.58498 4.669,-1.58498 1.96784,0 4.58887,0.65733 5.74643,1.97198 1.16582,1.30638 1.74873,3.07991 1.74873,5.3206 0,2.24069 -0.58291,4.01836 -1.74873,5.33301 -1.15756,1.30638 -3.77859,1.95957 -5.74643,1.95957 -1.95957,0 -3.52226,-0.65319 -4.68808,-1.95957 -0.28784,-0.3269 -0.68001,-1.29358 -0.77383,-1.08723 -0.12751,0.28048 -0.22079,-0.49212 -0.15683,-0.57834 0.12765,-0.17208 -0.12259,-0.43213 -0.18983,-0.69325 -0.0904,-0.35117 -0.29536,-0.10261 -0.41691,-0.58524 -0.0492,-0.19542 0.10661,-0.34983 0.0629,-0.63867 -0.0845,-0.55759 -0.2618,-1.41923 -0.2618,-1.75028 z"
       style="font-weight:bold;font-size:25.4px;font-family:monospace;-inkscape-font-specification:'monospace Bold';fill:#000000;stroke-width:0.264583"
       id="path1389"
       sodipodi:nodetypes="ssscscscsscscscscsssssss" />
    <path
       id="path1391"
       style="font-weight:bold;font-size:25.4px;font-family:monospace;-inkscape-font-specification:'monospace Bold';display:inline;fill:#000000;stroke-width:0.264583"
       d="m 209.81363,158.68184 v 5.00228 h -1.95957 v 2.79052 l 1.26142,-0.004 0.31678,-0.15503 0.38137,0.15916 c -0.009,0.16302 -0.24627,0.44175 -0.15917,0.70125 0.0209,0.0624 0.1892,-0.0117 0.2217,0.21033 0.0641,0.43752 -0.005,1.30264 -0.01,1.56941 -0.009,0.48773 -0.11057,0.2104 -0.22324,0.45527 l 0.2191,1.07177 0.22531,0.4563 -0.23926,0.1602 0.19896,0.34261 -0.21033,0.25012 -0.0227,1.18235 c 0,1.80247 0.43202,3.61942 1.16789,4.28915 0.73588,0.66146 4.1982,0.41134 6.28179,0.41134 0,0 3.15129,0.16438 3.05098,0 -0.33691,-0.55208 0,-2.79053 0,-2.79053 l -1.80403,0.1788 -0.18965,0.23048 -0.52348,-0.2036 c -0.28112,-0.10963 -1.38045,0.0123 -1.78646,-0.60255 -0.29765,-0.27285 -0.44248,-0.71935 -0.44648,-1.33945 l -0.046,-6.86935 0.61701,0.17363 0.78497,-0.0465 0.24236,-0.17156 0.18552,0.1943 c 0,0 2.58167,-0.76596 2.96623,0.14624 0.0287,0.0682 -0.16856,-2.52713 0,-2.79052 0.10016,-0.1565 -4.7501,0 -4.7501,0 v -5.00242 z m 3.03082,5.70301 c 0.003,-1.5e-4 0.006,0 0.01,0 0.10687,0 0.25425,0.057 0.25425,0.15503 0,0.098 -0.0952,0.2682 -0.20206,0.2682 -0.10687,0 -0.24546,-0.14802 -0.24546,-0.24598 0,-0.0949 0.0812,-0.1725 0.18345,-0.17725 z m 1.59008,0.87075 c 0.35622,0 0.64494,0.11988 0.64493,0.38705 -1e-5,0.26983 -0.32002,0.67341 -0.64493,0.4837 -0.2924,-0.17074 -0.63318,-0.23121 -0.64492,-0.4837 -0.0124,-0.26688 0.2887,-0.38705 0.64492,-0.38705 z"
       sodipodi:nodetypes="cccccccscccccccccccscccccccccccsscccssssssssssss" />
    <path
       id="rect1613"
       style="fill:#000000;stroke-width:0.264583"
       d="m 220.8845,174.80148 1.61249,-0.16125 c 0,0 0.0656,1.20055 -0.19345,2.74123 -0.11026,0.65554 -1.41899,0.0967 -1.41899,0.0967 0,0 -0.31504,-0.4776 -0.258,-1.64475 0.0173,-0.35414 0.25795,-1.03193 0.25795,-1.03193 z"
       sodipodi:nodetypes="ccscsc" />
    <path
       id="rect1616"
       style="fill:#000000;stroke-width:0.264583"
       d="m 220.78777,163.64304 h 1.19324 c 0,0 -0.32424,0.97324 -0.3225,2.83798 2.7e-4,0.29025 -0.84358,0.28897 -0.87074,0 -0.21742,-2.31366 0,-2.83798 0,-2.83798 z"
       sodipodi:nodetypes="ccssc" />
  </g>
</svg>
