<?xml version="1.0" encoding="UTF-8" standalone="no"?>
<!-- Created with Inkscape (http://www.inkscape.org/) -->

<svg
   width="164.35789mm"
   height="82.070961mm"
   viewBox="0 0 164.35789 82.070961"
   version="1.1"
   id="svg5"
   inkscape:version="1.2 (dc2aedaf03, 2022-05-15)"
   sodipodi:docname="logo_main.svg"
   xmlns:inkscape="http://www.inkscape.org/namespaces/inkscape"
   xmlns:sodipodi="http://sodipodi.sourceforge.net/DTD/sodipodi-0.dtd"
   xmlns="http://www.w3.org/2000/svg"
   xmlns:svg="http://www.w3.org/2000/svg">
  <sodipodi:namedview
     id="namedview7"
     pagecolor="#ffffff"
     bordercolor="#000000"
     borderopacity="0.25"
     inkscape:showpageshadow="2"
     inkscape:pageopacity="0.0"
     inkscape:pagecheckerboard="0"
     inkscape:deskcolor="#d1d1d1"
     inkscape:document-units="mm"
     showgrid="false"
     showguides="false"
     inkscape:zoom="0.72515432"
     inkscape:cx="303.3837"
     inkscape:cy="-15.169185"
     inkscape:window-width="1920"
     inkscape:window-height="1001"
     inkscape:window-x="-9"
     inkscape:window-y="-9"
     inkscape:window-maximized="1"
     inkscape:current-layer="layer1"
     inkscape:lockguides="false" />
  <defs
     id="defs2" />
  <g
     inkscape:label="Layer 1"
     inkscape:groupmode="layer"
     id="layer1"
     transform="translate(-20.253027,-109.26206)">
    <path
       id="rect452"
       style="opacity:1;fill:#b4e914;fill-opacity:1;stroke-width:0.248412"
       inkscape:label="rect452"
       d="m 20.253027,109.26206 v 57.08386 c 0.50817,2.38433 0.179318,6.04359 0.179318,8.78706 0,4.14377 3.335935,7.47965 7.479646,7.47965 4.143722,0 7.479647,-3.33588 7.479647,-7.47965 0,0 -0.72972,-4.90037 0,-8.78706 0.60659,-3.23091 2.906419,-5.27171 6.020305,-5.36815 2.7444,0 2.85926,2.25914 3.589445,5.36815 h 6.469372 c 0,0 -1.663978,-1.20196 -1.3224,-3.03134 0.103666,-0.55519 4.316846,-1.92288 5.063774,-1.82366 0.650694,0.0864 0.98621,2.97899 0.248047,2.88716 -2.27851,-0.28344 -2.177645,1.88257 -2.177645,1.88257 l 6.919991,0.0853 -0.821139,-1.74046 c -1.767976,-3.74767 2.059123,-7.29694 8.300786,-7.75302 4.132692,-0.30198 8.641144,2.71851 8.209834,7.47965 l -0.182417,2.01383 -0.547254,6.14123 c -0.532712,5.97758 2.19649,7.47964 4.925281,7.47964 2.728791,0 4.027132,-3.4346 4.925798,-7.47964 l 0.364835,-1.64228 c 0,4.14366 3.065181,6.357 7.114811,5.19916 7.058534,-2.01802 2.217588,-9.38539 7.38818,-9.48624 1.666748,-0.0325 0.09147,5.00021 0.09147,5.00021 0.07558,4.14308 2.196978,7.47965 4.925798,7.47965 2.72872,0 4.92579,-3.33588 4.92579,-7.47965 l -1.27692,-5.21208 c 0,0 9.50224,0.31917 9.26248,0.0455 -1.34661,-1.53714 2.69722,-0.59635 1.45004,-0.0455 -1.20037,0.53025 6.09132,0.0128 6.17017,0 l 2.4629,0.45062 c 4.66228,0.85325 -2.04529,-6.74991 5.01726,-8.75657 3.98599,-1.13257 6.02031,3.88317 6.02031,8.0269 0,1.3558 2.75366,1.61673 2.91868,2.8329 0.47603,3.5082 -0.15191,6.64917 -1.45934,10.5208 -2.11149,6.25281 5.31286,11.91245 11.91245,11.91245 6.5996,0 13.00319,-5.40342 11.91297,-11.91245 -2.0243,-12.08559 -0.18242,-18.3751 -0.18242,-18.3751 0.84754,-2.70119 4.03532,-3.31453 5.37952,-3.31453 3.11937,0 5.43146,0.14464 5.5392,5.19917 0.50563,1.66055 3.51315,6.71957 0.0915,17.5891 -0.50548,2.59801 2.13076,4.77749 4.77749,4.77749 2.64672,0 4.98549,-2.13895 4.77748,-4.77749 -0.63841,-8.09933 0,-14.17329 0,-14.17329 v -6.37274 -50.71112 z m 29.04784,45.77861 c 0.409645,0 3.515032,1.94272 3.515031,3.22512 1e-6,1.2824 -2.083114,2.22599 -2.289783,2.57969 -1.974497,3.37929 -3.450436,-1.68444 -3.450435,-2.96674 1e-6,-1.2824 1.815532,-2.83807 2.225187,-2.83807 z m 70.340413,2.82153 c 0.93198,0 1.49396,1.45834 1.49396,2.54145 0,1.08305 -0.75577,1.96112 -1.68775,1.96112 -0.93198,0 -2.23552,-0.87807 -2.23552,-1.96112 0,-1.08311 1.49733,-2.54145 2.42931,-2.54145 z m -30.656531,2.04639 c 0.02873,-0.002 0.05409,0.002 0.07545,0.0119 0.201817,0.0953 -2.547823,5.2607 -1.276925,8.44186 2.321982,5.81214 1.20337,6.09928 0.696599,5.76968 -1.594824,-1.03725 -2.212083,-1.54304 -2.16886,-5.57227 0.06408,-5.97312 2.089499,-8.604 2.673738,-8.65115 z m 51.891411,0.65009 c 0.0461,10e-4 0.0982,0.009 0.15658,0.0232 1.09986,0.27365 5.40638,0.51491 5.40638,2.33164 0,1.81672 -0.54849,3.49539 -1.83089,3.49539 -1.2824,0 -3.37867,0.45266 -3.27732,-1.36115 0.10314,-1.84579 -1.3919,-4.51134 -0.45475,-4.48913 z m -19.42156,2.71818 a 0.95777023,1.0033784 0 0 1 0.95757,1.00355 0.95777023,1.0033784 0 0 1 -0.95757,1.00356 0.95777023,1.0033784 0 0 1 -0.95808,-1.00356 0.95777023,1.0033784 0 0 1 0.95808,-1.00355 z m -97.645201,8.72556 c 0.137652,-0.004 0.293132,0.0373 0.468706,0.13384 0.58639,0.3225 -0.476353,1.45782 0.129191,2.90267 1.142688,2.72651 6.133669,3.32977 2.386417,4.19251 -2.367686,0.54512 -3.999237,-2.83223 -3.999239,-4.25711 -2e-6,-1.22451 0.173722,-2.94735 1.014925,-2.97191 z m 78.957451,3.99769 a 1.0945947,0.37626692 48.537965 0 1 0.90899,0.60771 1.0945947,0.37626692 48.537965 0 1 0.44235,1.06919 1.0945947,0.37626692 48.537965 0 1 -1.00665,-0.57102 1.0945947,0.37626692 48.537965 0 1 -0.44235,-1.06971 1.0945947,0.37626692 48.537965 0 1 0.0977,-0.0362 z m -25.735893,0.1633 c 0.201422,-0.005 0.442877,0.0336 0.63717,0.0336 0.414503,0 0.750344,0.35496 0.750342,0.79271 -2e-6,0.43775 -0.335842,0.79272 -0.750342,0.79272 -0.414495,0 -1.042829,-0.8831 -1.04283,-1.32085 -2e-6,-0.23255 0.177382,-0.29299 0.40566,-0.29817 z m 99.685903,5.49889 c 0.26774,-0.004 0.73666,0.2682 1.10898,0.2682 0.55415,-1e-5 0.59324,0.0342 0.59324,0.63872 1e-5,0.60454 0.0979,0.95756 -0.4563,0.95756 -0.55415,-1e-5 -1.45934,-0.99175 -1.45934,-1.59628 0,-0.19836 0.0827,-0.26612 0.21342,-0.2682 z m -33.9478,0.37103 c 0.55203,-0.006 1.73437,0.86042 3.43649,0.86042 2.42072,0 3.88141,1.58895 3.88141,3.08508 -1e-5,1.49613 -1.77076,2.6178 -3.54655,1.84381 -2.21916,-0.96716 -4.12533,-3.68856 -4.12533,-5.18469 0,-0.44417 0.1209,-0.60213 0.35398,-0.60462 z" />
    <path
       d="m 47.212121,132.23556 c 0.272851,-0.58705 0.620117,-1.02113 1.041797,-1.30225 0.421679,-0.28112 0.938443,-0.42168 1.550292,-0.42168 1.198893,0 5.200716,0.41341 5.655469,1.24024 0.34744,1.42508 1.36095,1.96588 0.944222,2.59474 -0.592136,0.89358 -0.249691,1.14034 -0.249691,2.56463 v 7.82588 h -3.505729 c 0.615532,-2.35689 2.89e-4,-5.94456 0,-8.91728 -8.3e-5,-0.8511 -0.562878,-1.17133 -0.235645,-2.07119 0.802304,-2.20626 -2.768926,-1.47867 -3.638418,-0.97698 -0.35808,0.20661 -0.565975,0.63385 -0.73134,0.98938 -0.165365,0.35553 -0.248047,1.0418 -0.248047,2.05879 0,0 -0.495342,7.34059 0.228041,8.96289 0,0 -3.379395,0.48641 -3.99769,-0.27365 -0.596756,-0.73358 -0.228041,-8.68924 -0.228041,-8.68924 0,-1.01699 -0.08268,-1.70326 -0.248046,-2.05879 -0.165365,-0.35553 -0.454753,-0.5333 -0.868165,-0.5333 -0.413411,0 -2.01719,-0.50582 -2.972428,1.05007 -0.199418,0.32481 -0.235645,0.50849 -0.235645,1.54202 0,0 0.280068,1.029 -0.228041,1.55178 -0.437651,0.45028 0.47473,0.51557 0.228041,1.86993 -0.444409,2.43988 0,5.49557 0,5.49557 h -6.242778 c 0,0 0.194325,-1.92857 -0.228041,-3.71685 0.200579,-0.86086 0.319257,-8.84797 0.319257,-8.84797 l 0.04561,-1.64506 c 0,0 2.810468,0.22997 3.556206,0.31926 0.745738,0.0893 2.279385,-0.35475 2.279385,-0.35475 l -0.257999,2.72866 c 0.206706,-0.54571 0.988932,-1.7819 1.443684,-2.09609 2.005429,-0.64172 2.821918,-0.61269 3.384158,-0.61269 0.562239,0 2.133203,0.1695 2.596224,0.5085 0.463021,0.33073 0.744141,0.73587 0.84336,1.21543 z"
       style="font-weight:bold;font-size:25.4px;font-family:monospace;-inkscape-font-specification:'monospace Bold';fill:#ffffff;stroke-width:0.264583"
       id="path1377"
       sodipodi:nodetypes="csscssccssssssssssssssccccczcccsccc" />
    <path
       d="m 67.408302,138.09947 c -1.250324,-0.21097 -1.617353,-0.59 -2.868196,0.13714 -0.553189,0.32158 -0.957955,1.07225 -0.957955,1.9156 0,0.62839 0.168763,1.85673 0.540833,2.2288 0.37207,0.37207 1.250368,0.46712 1.805627,0.7786 0.862365,0.48374 1.122759,-0.39192 1.651925,-1.11125 0.529167,-0.72761 0.503502,-2.28871 0.503502,-3.58682 v -0.24805 z m 4.542816,-1.22295 c 0,0 -0.708748,3.73623 -0.225748,8.15085 0.0287,0.2623 -3.871789,0.44679 -3.705832,-0.0645 0.165958,-0.51129 0.0645,-1.77604 0.0645,-1.77604 -0.438216,0.61185 -1.000456,1.08314 -1.686719,1.41387 -0.686263,0.33073 -1.442806,0.49609 -2.269629,0.49609 -1.579231,0 -2.585449,-0.6433 -3.470149,-1.47839 -0.876433,-0.83509 -1.540398,-1.77516 -1.540398,-3.27171 0,-1.62057 0.525033,-2.81533 1.575098,-3.58428 1.050065,-0.77721 2.674772,-1.16582 4.874121,-1.16582 l 2.517676,0.4515 0.741745,0.61778 c 0.451086,0.3757 -0.182724,-2.48064 -0.612672,-2.77829 -0.42168,-0.30593 1.566303,-0.68464 -2.45325,-1.74888 -0.839246,-0.22221 -1.453525,0.27287 -2.27208,0.49612 -1.036035,0.66646 -1.69003,1.75548 -2.381231,2.71878 0,0 0.211738,-1.56461 -1.418991,-2.77809 -1.630728,-1.21348 2.42336,-1.66762 3.249506,-1.82823 2.632812,-0.51185 2.260578,-0.42948 3.177544,-0.30015 2.515225,0.35475 3.292346,0.52339 4.201851,1.44116 0.917773,0.91777 1.700127,2.62443 1.634658,4.98823 z"
       style="font-weight:bold;font-size:25.4px;font-family:monospace;-inkscape-font-specification:'monospace Bold';fill:#ffffff;stroke-width:0.264583"
       id="path1379"
       sodipodi:nodetypes="ssssscscssszcsscscscscscczsscs" />
    <path
       d="m 75.926452,138.94523 0.182432,-0.79827 -0.182432,-9.91736 c 0,0 -1.288085,0.44168 -1.56683,0 -0.156046,-0.24726 -0.657735,-2.1328 0,-2.79053 1.22582,-1.22582 7.037081,0.0302 6.459613,-0.0456 -0.212405,-0.0279 -0.541994,2.9745 -0.478217,4.11818 0.0132,0.23678 0.86815,0.21131 0.374905,0.99757 -0.186407,0.29714 -0.616033,1.87215 -0.409513,2.35242 0.02367,0.055 -0.202955,0.44728 -0.318157,0.90911 -0.04859,0.19481 0.213684,0.67502 0.221878,1.32087 0.01974,1.55575 -0.120642,3.85362 -0.120642,3.85362 0,1.09141 0.698666,2.39366 1.037663,2.84841 0.338997,0.45475 0.913639,0.68212 1.723926,0.68212 h 2.902148 l -0.529167,2.79053 h -3.91914 c -1.72806,0 -3.497461,-0.44648 -4.24987,-1.33945 -0.452764,-0.53735 -0.929263,-2.14111 -0.981248,-3.90982 -0.007,-0.23886 -1.409877,-0.28272 -0.147365,-1.07179 z"
       style="font-weight:bold;font-size:25.4px;font-family:monospace;-inkscape-font-specification:'monospace Bold';fill:#ffffff;stroke-width:0.264583"
       id="path1381"
       sodipodi:nodetypes="sccsssssssssssccsssss" />
    <path
       d="m 94.587845,133.46339 c -0.868164,0 -2.07946,0.38447 -2.575554,1.15342 -0.496094,0.76067 -0.744141,1.82314 -0.744141,3.1874 0,1.36426 0.248047,2.43086 0.744141,3.19981 0.496094,0.76067 1.70739,1.14101 2.575554,1.14101 0.876432,0 1.562695,-0.38034 2.058789,-1.14101 0.496086,-0.76895 0.744136,-1.83555 0.744136,-3.19981 0,-0.4164 0.734354,-0.92715 0.459843,-1.16485 -0.113776,-0.0985 -0.694594,-0.12782 -0.637614,-0.50999 0.06258,-0.41974 -0.415875,-1.28181 -0.566365,-1.51256 -0.496094,-0.76895 -1.182357,-1.15342 -2.058789,-1.15342 z m -6.953581,4.34082 c 0,-2.24069 0.578776,-4.01422 1.736328,-5.3206 1.16582,-1.31465 6.432682,-1.97198 8.392253,-1.97198 1.967837,0 3.530535,0.65733 4.688085,1.97198 0.24,0.26894 0.63009,0.60234 0.67636,1.01015 0.0454,0.40006 0.37703,0.7086 0.47898,0.87029 0.0771,0.12224 0.77676,0.51639 0.66298,0.94017 -0.12538,0.46699 -0.0696,1.67917 -0.0696,2.49999 0,2.24069 -0.58291,4.54753 -1.74873,5.86218 -1.15755,1.30638 -2.720248,1.4304 -4.688085,1.4304 -1.959571,0 -7.226433,-0.65319 -8.392253,-1.95957 -1.157552,-1.31465 -1.736328,-3.09232 -1.736328,-5.33301 z"
       style="font-weight:bold;font-size:25.4px;font-family:monospace;-inkscape-font-specification:'monospace Bold';fill:#ffffff;stroke-width:0.264583"
       id="path1383"
       sodipodi:nodetypes="scscscssscsscscsssscscss" />
    <path
       d="m 120.83618,145.62841 c -0.16437,0.2624 -0.129,2.45319 -0.129,2.45319 0,0 -1.51042,0.084 -2.49594,-0.0218 -0.72274,-0.0776 -0.49035,-1.24165 -0.72509,-1.19679 -1.84511,0.35262 0.21435,1.17232 -0.49523,1.18635 -1.95169,0.0386 -6.70617,0.007 -6.92245,0.016 -0.62129,0.0256 -0.83422,-0.17729 -0.90289,-0.17729 -0.14748,0 -0.0476,0.22146 -0.7067,0.25613 -1.07464,0.0565 -3.04379,-0.0626 -3.04379,-0.0626 l -0.3225,-2.32419 c 0,0 0.75143,-0.24582 1.13826,-0.3225 1.9751,-0.39153 8.10818,0.11733 10.57747,-0.3974 0.11017,-0.023 0.13035,0.21975 0.61367,0.27613 1.20188,0.14017 3.41419,0.24062 3.41419,0.31477 z"
       style="font-weight:bold;font-size:25.4px;font-family:monospace;-inkscape-font-specification:'monospace Bold';fill:#ffffff;stroke-width:0.264583"
       id="path1385"
       sodipodi:nodetypes="zcssssssccssssz" />
    <path
       d="m 131.24918,137.82902 c 0,-1.33945 -0.22324,-2.38952 -0.66973,-3.1502 -0.44649,-0.76067 -1.06247,-1.14101 -1.84795,-1.14101 -0.78548,0 -1.4056,0.38034 -1.86035,1.14101 -0.45475,0.76068 -0.68213,1.81075 -0.68213,3.1502 0,1.33945 0.22738,2.38952 0.68213,3.15019 0.45475,0.76068 1.07487,1.14102 1.86035,1.14102 0.78548,0 1.40146,-0.38034 1.84795,-1.14102 0.1414,-0.2409 0.37179,-1.09133 0.56636,-1.39028 0.15266,-0.23457 0.28326,0.0935 0.3315,-0.17683 0.0479,-0.26852 -0.0643,-0.18381 -0.14248,-0.4876 -0.0595,-0.23131 -0.0857,-0.84372 -0.0857,-1.09548 z m -5.06016,-5.01055 c 0.44649,-0.76895 0.96325,-1.34359 1.55029,-1.72393 0.59531,-0.38861 1.26504,0.12659 2.00918,0.12659 0.94848,0 2.32371,-0.11429 4.61167,1.30104 0.82054,0.50759 0.77895,0.0374 1.23562,0.13262 0.0584,0.27685 -0.17721,0.3078 0.0185,0.77898 0.41919,1.00913 1.38544,2.76969 1.38544,4.37044 0,2.31511 -0.43822,4.10931 -1.31465,5.38262 -0.87643,1.27331 -4.22506,1.90996 -5.81256,1.90996 -0.83509,0 -1.5627,-0.20257 -2.18282,-0.60772 -0.62011,-0.40514 -1.12034,-1.00872 -1.50068,-1.81074 v 2.05879 h -4.15065 c 0,0 -0.005,-1.81681 -0.0858,-2.76072 -0.0283,-0.33186 -0.16572,-0.33599 -0.17745,-0.41898 -0.0545,-0.38536 0.19159,-0.61297 0.18908,-0.69695 -0.0117,-0.3914 -0.0674,-2.96822 -0.10133,-3.85417 -0.0192,-0.50138 -0.13883,-0.21625 -0.14088,-0.39611 -0.001,-0.11962 0.0978,-0.11252 0.0747,-0.37189 -0.042,-0.47209 0.073,-1.3214 0.081,-1.65783 0.0172,-0.72273 0.46088,-0.3491 0.4549,-0.46095 -0.0504,-0.94234 -0.48242,-1.07779 -0.50219,-1.47415 -0.0248,-0.49743 0.0312,-6.28362 0.30472,-6.65805 0.69947,-0.95746 4.93728,-1.16814 4.58307,-0.019 -0.9139,2.96463 -0.52917,6.85023 -0.52917,6.85023 z"
       style="font-weight:bold;font-size:25.4px;font-family:monospace;-inkscape-font-specification:'monospace Bold';fill:#ffffff;stroke-width:0.264583"
       id="path1387"
       sodipodi:nodetypes="ssssssssssssccsscssssscccssssssssssscc" />
    <path
       d="m 146.81413,133.10864 c -0.86816,0 -2.14207,-0.0981 -2.64006,0.66968 -0.4942,0.76189 -0.92447,2.37138 -0.92447,3.73564 0,1.36426 0.2158,3.20486 0.71189,3.97381 0.4961,0.76067 1.98448,0.65726 2.85264,0.65726 0.87643,0 2.09186,-0.38034 2.58796,-1.14101 0.49609,-0.76895 0.74414,-1.83555 0.74414,-3.19981 0,-1.36426 -0.24805,-2.42673 -0.74414,-3.1874 -0.4961,-0.76895 -1.71153,-1.50817 -2.58796,-1.50817 z m -6.42441,4.69557 c 0,-2.24069 0.59786,-4.40122 1.75541,-5.7076 1.16582,-1.31465 2.70943,-1.58498 4.669,-1.58498 1.96784,0 4.58887,0.65733 5.74643,1.97198 1.16582,1.30638 1.74873,3.07991 1.74873,5.3206 0,2.24069 -0.58291,4.01836 -1.74873,5.33301 -1.15756,1.30638 -3.77859,1.95957 -5.74643,1.95957 -1.95957,0 -3.52226,-0.65319 -4.68808,-1.95957 -0.28784,-0.3269 -0.68001,-1.29358 -0.77383,-1.08723 -0.12751,0.28048 -0.22079,-0.49212 -0.15683,-0.57834 0.12765,-0.17208 -0.12259,-0.43213 -0.18983,-0.69325 -0.0904,-0.35117 -0.29536,-0.10261 -0.41691,-0.58524 -0.0492,-0.19542 0.10661,-0.34983 0.0629,-0.63867 -0.0845,-0.55759 -0.2618,-1.41923 -0.2618,-1.75028 z"
       style="font-weight:bold;font-size:25.4px;font-family:monospace;-inkscape-font-specification:'monospace Bold';fill:#ffffff;stroke-width:0.264583"
       id="path1389"
       sodipodi:nodetypes="ssscscscsscscscscsssssss" />
    <path
       id="path1391"
       style="font-weight:bold;font-size:25.4px;font-family:monospace;-inkscape-font-specification:'monospace Bold';display:inline;fill:#ffffff;stroke-width:0.264583"
       d="m 157.27309,125.844 v 5.00228 h -1.95957 v 2.79052 l 1.26142,-0.004 0.31678,-0.15503 0.38137,0.15916 c -0.009,0.16302 -0.24627,0.44175 -0.15917,0.70125 0.0209,0.0624 0.1892,-0.0117 0.2217,0.21033 0.0641,0.43752 -0.005,1.30264 -0.01,1.56941 -0.009,0.48773 -0.11057,0.2104 -0.22324,0.45527 l 0.2191,1.07177 0.22531,0.4563 -0.23926,0.1602 0.19896,0.34261 -0.21033,0.25012 -0.0227,1.18235 c 0,1.80247 0.43202,3.61942 1.16789,4.28915 0.73588,0.66146 4.1982,0.41134 6.28179,0.41134 0,0 3.15129,0.16438 3.05098,0 -0.33691,-0.55208 0,-2.79053 0,-2.79053 l -1.80403,0.1788 -0.18965,0.23048 -0.52348,-0.2036 c -0.28112,-0.10963 -1.38045,0.0123 -1.78646,-0.60255 -0.29765,-0.27285 -0.44248,-0.71935 -0.44648,-1.33945 l -0.046,-6.86935 0.61701,0.17363 0.78497,-0.0465 0.24236,-0.17156 0.18552,0.1943 c 0,0 2.58167,-0.76596 2.96623,0.14624 0.0287,0.0682 -0.16856,-2.52713 0,-2.79052 0.10016,-0.1565 -4.7501,0 -4.7501,0 V 125.844 Z m 3.03082,5.70301 c 0.003,-1.5e-4 0.006,0 0.01,0 0.10687,0 0.25425,0.057 0.25425,0.15503 0,0.098 -0.0952,0.2682 -0.20206,0.2682 -0.10687,0 -0.24546,-0.14802 -0.24546,-0.24598 0,-0.0949 0.0812,-0.1725 0.18345,-0.17725 z m 1.59008,0.87075 c 0.35622,0 0.64494,0.11988 0.64493,0.38705 -1e-5,0.26983 -0.32002,0.67341 -0.64493,0.4837 -0.2924,-0.17074 -0.63318,-0.23121 -0.64492,-0.4837 -0.0124,-0.26688 0.2887,-0.38705 0.64492,-0.38705 z"
       sodipodi:nodetypes="cccccccscccccccccccscccccccccccsscccssssssssssss" />
    <path
       id="path1558"
       style="fill:#c6f443;stroke-width:0.264583"
       d="m 101.50187,142.53207 c 0.38778,0.0453 -0.66281,0.88935 -1.1288,0.88935 -0.465987,0 -0.770667,-0.5618 -0.838047,-0.94636 -0.09531,-0.54398 0.34122,-0.89502 0.980567,-0.61571 0.42703,0.18654 0.18244,0.57875 0.98628,0.67272 z"
       sodipodi:nodetypes="sssss" />
    <path
       id="rect1613"
       style="fill:#ffffff;stroke-width:0.264583"
       d="m 168.34396,141.96364 1.61249,-0.16125 c 0,0 0.0656,1.20055 -0.19345,2.74123 -0.11026,0.65554 -1.41899,0.0967 -1.41899,0.0967 0,0 -0.31504,-0.4776 -0.258,-1.64475 0.0173,-0.35414 0.25795,-1.03193 0.25795,-1.03193 z"
       sodipodi:nodetypes="ccscsc" />
    <path
       id="rect1616"
       style="fill:#ffffff;stroke-width:0.264583"
       d="m 168.24723,130.8052 h 1.19324 c 0,0 -0.32424,0.97324 -0.3225,2.83798 2.7e-4,0.29025 -0.84358,0.28897 -0.87074,0 -0.21742,-2.31366 0,-2.83798 0,-2.83798 z"
       sodipodi:nodetypes="ccssc" />
  </g>
</svg>
